<svg width="133" height="43" viewBox="0 0 133 43" fill="none" xmlns="http://www.w3.org/2000/svg">
<rect width="133" height="43" rx="10" fill="#011F15"/>
<g clip-path="url(#clip0_2856_1594)">
<path d="M33.2482 17.0529C31.2819 18.2059 30.0675 20.1824 30.0675 22.3784C30.0675 24.849 31.6289 27.1 34 28.0333C33.5373 29.4608 32.8434 30.7784 31.9759 31.9863C30.7036 33.6882 29.3735 35.4451 27.4072 35.4451C25.441 35.4451 24.8627 34.3471 22.5494 34.3471C20.294 34.3471 19.4843 35.5 17.6337 35.5C15.7831 35.5 14.5108 33.9078 13.0651 31.9314C11.1566 29.1863 10.0578 26.002 10 22.6529C10 17.2176 13.7012 14.3078 17.4024 14.3078C19.3687 14.3078 20.988 15.5157 22.2024 15.5157C23.359 15.5157 25.2096 14.2529 27.4072 14.2529C29.7205 14.198 31.9181 15.2412 33.2482 17.0529ZM26.3663 11.9471C27.3494 10.849 27.8699 9.47647 27.9277 8.04902C27.9277 7.88431 27.9277 7.66471 27.8699 7.5C26.1928 7.66471 24.6313 8.43333 23.5325 9.64118C22.5494 10.6843 21.9711 12.002 21.9133 13.4294C21.9133 13.5941 21.9133 13.7588 21.9711 13.9235C22.0867 13.9235 22.2602 13.9784 22.3759 13.9784C23.9373 13.8686 25.3831 13.1 26.3663 11.9471Z" fill="white"/>
</g>
<path d="M50.5234 16.1465C49.7148 16.1465 49.0078 15.9609 48.4023 15.5898C47.7969 15.2148 47.3262 14.6973 46.9902 14.0371C46.6582 13.377 46.4922 12.6133 46.4922 11.7461C46.4922 10.9023 46.6523 10.1562 46.9727 9.50781C47.2969 8.85547 47.7578 8.34375 48.3555 7.97266C48.957 7.60156 49.6758 7.41602 50.5117 7.41602C51.3828 7.41602 52.1387 7.64062 52.7793 8.08984C53.4199 8.53516 53.8438 9.20312 54.0508 10.0938L52.7383 10.4043C52.582 9.74414 52.3066 9.25586 51.9121 8.93945C51.5176 8.62305 51.0469 8.46484 50.5 8.46484C49.9375 8.46484 49.457 8.60742 49.0586 8.89258C48.6641 9.17383 48.3613 9.5625 48.1504 10.0586C47.9434 10.5547 47.8398 11.127 47.8398 11.7754C47.8398 12.4355 47.9473 13.0156 48.1621 13.5156C48.377 14.0156 48.6797 14.4043 49.0703 14.6816C49.4609 14.959 49.9238 15.0977 50.459 15.0977C51.0371 15.0977 51.5332 14.9258 51.9473 14.582C52.3652 14.2344 52.6348 13.75 52.7559 13.1289L54.1094 13.4629C53.8789 14.334 53.4414 15 52.7969 15.4609C52.1562 15.918 51.3984 16.1465 50.5234 16.1465ZM58.0762 16.1465C57.4707 16.1465 56.9355 16.0059 56.4707 15.7246C56.0098 15.4434 55.6504 15.0547 55.3926 14.5586C55.1348 14.0625 55.0059 13.4883 55.0059 12.8359C55.0059 12.1836 55.1348 11.6094 55.3926 11.1133C55.6504 10.6172 56.0098 10.2285 56.4707 9.94727C56.9355 9.66602 57.4707 9.52539 58.0762 9.52539C58.6816 9.52539 59.2148 9.66602 59.6758 9.94727C60.1406 10.2285 60.502 10.6172 60.7598 11.1133C61.0176 11.6094 61.1465 12.1836 61.1465 12.8359C61.1465 13.4883 61.0176 14.0625 60.7598 14.5586C60.502 15.0547 60.1406 15.4434 59.6758 15.7246C59.2148 16.0059 58.6816 16.1465 58.0762 16.1465ZM58.0762 15.1973C58.6309 15.1973 59.0684 14.9863 59.3887 14.5645C59.709 14.1387 59.8691 13.5625 59.8691 12.8359C59.8691 12.1055 59.709 11.5293 59.3887 11.1074C59.0684 10.6855 58.6309 10.4746 58.0762 10.4746C57.5215 10.4746 57.084 10.6855 56.7637 11.1074C56.4434 11.5293 56.2832 12.1055 56.2832 12.8359C56.2832 13.5625 56.4434 14.1387 56.7637 14.5645C57.084 14.9863 57.5215 15.1973 58.0762 15.1973ZM62.541 16V9.67188H63.6719V10.7383C63.832 10.3984 64.0801 10.1113 64.416 9.87695C64.7559 9.64258 65.1582 9.52539 65.623 9.52539C66.0488 9.52539 66.416 9.63867 66.7246 9.86523C67.0332 10.0918 67.2617 10.4141 67.4102 10.832C67.6211 10.4297 67.9004 10.1113 68.248 9.87695C68.5957 9.64258 68.9941 9.52539 69.4434 9.52539C70.0566 9.52539 70.5371 9.74805 70.8848 10.1934C71.2363 10.6348 71.4121 11.2539 71.4121 12.0508V16H70.2227V12.0977C70.2227 11.7734 70.1895 11.4902 70.123 11.248C70.0566 11.0059 69.9434 10.8184 69.7832 10.6855C69.627 10.5488 69.4121 10.4805 69.1387 10.4805C68.834 10.4805 68.5625 10.5723 68.3242 10.7559C68.0898 10.9355 67.9062 11.1934 67.7734 11.5293C67.6406 11.8652 67.5742 12.2695 67.5742 12.7422V16H66.3848V12.0977C66.3848 11.7734 66.3496 11.4902 66.2793 11.248C66.2129 11.0059 66.1016 10.8184 65.9453 10.6855C65.793 10.5488 65.5801 10.4805 65.3066 10.4805C65.002 10.4805 64.7305 10.5703 64.4922 10.75C64.2539 10.9297 64.0664 11.1875 63.9297 11.5234C63.7969 11.8594 63.7305 12.2656 63.7305 12.7422V16H62.541ZM73.1523 16V9.67188H74.3418V16H73.1523ZM73.75 8.69336C73.4883 8.69336 73.2695 8.60742 73.0938 8.43555C72.9219 8.25977 72.8359 8.04297 72.8359 7.78516C72.8359 7.51953 72.9219 7.30078 73.0938 7.12891C73.2695 6.95703 73.4883 6.87109 73.75 6.87109C74.0117 6.87109 74.2285 6.95703 74.4004 7.12891C74.5762 7.30078 74.6641 7.51953 74.6641 7.78516C74.6641 8.04297 74.5762 8.25977 74.4004 8.43555C74.2285 8.60742 74.0117 8.69336 73.75 8.69336ZM76.1816 16V9.67188H77.3125V11.1074L77.2715 10.8496C77.4473 10.4707 77.7148 10.1562 78.0742 9.90625C78.4336 9.65234 78.8711 9.52539 79.3867 9.52539C79.8477 9.52539 80.2383 9.62891 80.5586 9.83594C80.8789 10.043 81.123 10.334 81.291 10.709C81.4629 11.084 81.5488 11.5312 81.5488 12.0508V16H80.3594V12.1387C80.3594 11.6348 80.2617 11.2324 80.0664 10.9316C79.8711 10.6309 79.5449 10.4805 79.0879 10.4805C78.5879 10.4805 78.1758 10.6777 77.8516 11.0723C77.5312 11.4668 77.3711 12.043 77.3711 12.8008V16H76.1816ZM85.6621 18.4316C84.6973 18.4316 83.9863 18.2988 83.5293 18.0332C83.0723 17.7676 82.8438 17.3574 82.8438 16.8027C82.8438 16.4824 82.9258 16.2031 83.0898 15.9648C83.2539 15.7266 83.5215 15.5449 83.8926 15.4199C83.7441 15.3262 83.623 15.2051 83.5293 15.0566C83.4395 14.9082 83.3945 14.7422 83.3945 14.5586C83.3945 14.332 83.4648 14.1328 83.6055 13.9609C83.7461 13.7852 83.9473 13.6582 84.209 13.5801C83.8965 13.3926 83.6523 13.1426 83.4766 12.8301C83.3047 12.5176 83.2188 12.1562 83.2188 11.7461C83.2188 11.293 83.3223 10.9004 83.5293 10.5684C83.7363 10.2363 84.0312 9.98047 84.4141 9.80078C84.7969 9.61719 85.25 9.52539 85.7734 9.52539C86.2969 9.52539 86.75 9.61719 87.1328 9.80078C87.5195 9.98047 87.8184 10.2383 88.0293 10.5742C88.2402 10.9062 88.3457 11.3008 88.3457 11.7578C88.3457 12.207 88.2402 12.5957 88.0293 12.9238C87.8184 13.252 87.5195 13.5059 87.1328 13.6855C86.7461 13.8652 86.2871 13.9551 85.7559 13.9551H85.2461C84.7812 13.9551 84.5488 14.0898 84.5488 14.3594C84.5488 14.6172 84.7754 14.7461 85.2285 14.7461H86.5C86.9805 14.7461 87.373 14.8027 87.6777 14.916C87.9824 15.0254 88.2188 15.1719 88.3867 15.3555C88.5586 15.5352 88.6777 15.7324 88.7441 15.9473C88.8105 16.1621 88.8438 16.375 88.8438 16.5859C88.8438 17.2109 88.6113 17.6738 88.1465 17.9746C87.6816 18.2793 86.9629 18.4316 85.9902 18.4316H85.6621ZM85.6738 17.5527H85.9961C87.0781 17.5527 87.6191 17.2285 87.6191 16.5801C87.6191 16.3145 87.5215 16.0977 87.3262 15.9297C87.1348 15.7578 86.8008 15.6719 86.3242 15.6719H85.3047C84.957 15.6719 84.6602 15.7461 84.4141 15.8945C84.1719 16.0391 84.0508 16.2793 84.0508 16.6152C84.0508 16.9316 84.1816 17.166 84.4434 17.3184C84.709 17.4746 85.1191 17.5527 85.6738 17.5527ZM85.7734 13.1523C86.2266 13.1523 86.5742 13.0332 86.8164 12.7949C87.0625 12.5527 87.1855 12.207 87.1855 11.7578C87.1855 11.3086 87.0625 10.9609 86.8164 10.7148C86.5742 10.4648 86.2266 10.3398 85.7734 10.3398C85.3242 10.3398 84.9785 10.4629 84.7363 10.709C84.4941 10.9551 84.373 11.3047 84.373 11.7578C84.373 12.207 84.4941 12.5527 84.7363 12.7949C84.9785 13.0332 85.3242 13.1523 85.7734 13.1523ZM86.7871 10.2578V9.625C86.7871 9.32422 86.8887 9.08398 87.0918 8.9043C87.2988 8.7207 87.5566 8.62891 87.8652 8.62891H88.5859V9.57227H87.9414C87.8203 9.57227 87.7402 9.59375 87.7012 9.63672C87.666 9.67969 87.6484 9.76562 87.6484 9.89453V10.2578H86.7871ZM95.2598 16.1465C94.7949 16.1465 94.3691 16.0723 93.9824 15.9238C93.5957 15.7754 93.2734 15.5508 93.0156 15.25C92.7617 14.9453 92.5938 14.5566 92.5117 14.084L93.6953 13.8555C93.7344 14.3125 93.8906 14.6543 94.1641 14.8809C94.4414 15.1074 94.7949 15.2207 95.2246 15.2207C95.6543 15.2207 95.9883 15.1191 96.2266 14.916C96.4688 14.709 96.5898 14.4609 96.5898 14.1719C96.5898 13.9219 96.502 13.7207 96.3262 13.5684C96.1543 13.416 95.8906 13.3086 95.5352 13.2461L94.8203 13.1113C94.6094 13.0762 94.3867 13.0254 94.1523 12.959C93.9219 12.8887 93.7051 12.791 93.502 12.666C93.3027 12.541 93.1387 12.375 93.0098 12.168C92.8848 11.9609 92.8223 11.6992 92.8223 11.3828C92.8223 10.9648 92.9316 10.6211 93.1504 10.3516C93.3691 10.0781 93.6621 9.87305 94.0293 9.73633C94.4004 9.5957 94.8066 9.52539 95.248 9.52539C95.7051 9.52539 96.1094 9.5957 96.4609 9.73633C96.8125 9.87695 97.0996 10.0801 97.3223 10.3457C97.5488 10.6074 97.6973 10.9277 97.7676 11.3066L96.5488 11.5527C96.5215 11.334 96.4609 11.1426 96.3672 10.9785C96.2734 10.8105 96.1367 10.6797 95.957 10.5859C95.7773 10.4922 95.541 10.4453 95.248 10.4453C94.9043 10.4453 94.6113 10.5176 94.3691 10.6621C94.1309 10.8027 94.0117 11.0137 94.0117 11.2949C94.0117 11.459 94.0566 11.5996 94.1465 11.7168C94.2402 11.8301 94.375 11.9238 94.5508 11.998C94.7266 12.0684 94.9434 12.1309 95.2012 12.1855L95.9453 12.3379C96.2773 12.4004 96.584 12.498 96.8652 12.6309C97.1504 12.7598 97.3789 12.9434 97.5508 13.1816C97.7266 13.416 97.8145 13.7266 97.8145 14.1133C97.8145 14.5391 97.7051 14.9043 97.4863 15.209C97.2676 15.5137 96.9668 15.7461 96.584 15.9062C96.2012 16.0664 95.7598 16.1465 95.2598 16.1465ZM102.033 16.1465C101.428 16.1465 100.893 16.0059 100.428 15.7246C99.9668 15.4434 99.6074 15.0547 99.3496 14.5586C99.0918 14.0625 98.9629 13.4883 98.9629 12.8359C98.9629 12.1836 99.0918 11.6094 99.3496 11.1133C99.6074 10.6172 99.9668 10.2285 100.428 9.94727C100.893 9.66602 101.428 9.52539 102.033 9.52539C102.639 9.52539 103.172 9.66602 103.633 9.94727C104.098 10.2285 104.459 10.6172 104.717 11.1133C104.975 11.6094 105.104 12.1836 105.104 12.8359C105.104 13.4883 104.975 14.0625 104.717 14.5586C104.459 15.0547 104.098 15.4434 103.633 15.7246C103.172 16.0059 102.639 16.1465 102.033 16.1465ZM102.033 15.1973C102.588 15.1973 103.025 14.9863 103.346 14.5645C103.666 14.1387 103.826 13.5625 103.826 12.8359C103.826 12.1055 103.666 11.5293 103.346 11.1074C103.025 10.6855 102.588 10.4746 102.033 10.4746C101.479 10.4746 101.041 10.6855 100.721 11.1074C100.4 11.5293 100.24 12.1055 100.24 12.8359C100.24 13.5625 100.4 14.1387 100.721 14.5645C101.041 14.9863 101.479 15.1973 102.033 15.1973ZM109.451 16.1465C108.846 16.1465 108.311 16.0059 107.846 15.7246C107.385 15.4434 107.025 15.0547 106.768 14.5586C106.51 14.0625 106.381 13.4883 106.381 12.8359C106.381 12.1836 106.51 11.6094 106.768 11.1133C107.025 10.6172 107.385 10.2285 107.846 9.94727C108.311 9.66602 108.846 9.52539 109.451 9.52539C110.057 9.52539 110.59 9.66602 111.051 9.94727C111.516 10.2285 111.877 10.6172 112.135 11.1133C112.393 11.6094 112.521 12.1836 112.521 12.8359C112.521 13.4883 112.393 14.0625 112.135 14.5586C111.877 15.0547 111.516 15.4434 111.051 15.7246C110.59 16.0059 110.057 16.1465 109.451 16.1465ZM109.451 15.1973C110.006 15.1973 110.443 14.9863 110.764 14.5645C111.084 14.1387 111.244 13.5625 111.244 12.8359C111.244 12.1055 111.084 11.5293 110.764 11.1074C110.443 10.6855 110.006 10.4746 109.451 10.4746C108.896 10.4746 108.459 10.6855 108.139 11.1074C107.818 11.5293 107.658 12.1055 107.658 12.8359C107.658 13.5625 107.818 14.1387 108.139 14.5645C108.459 14.9863 108.896 15.1973 109.451 15.1973ZM113.916 16V9.67188H115.047V11.1074L115.006 10.8496C115.182 10.4707 115.449 10.1562 115.809 9.90625C116.168 9.65234 116.605 9.52539 117.121 9.52539C117.582 9.52539 117.973 9.62891 118.293 9.83594C118.613 10.043 118.857 10.334 119.025 10.709C119.197 11.084 119.283 11.5312 119.283 12.0508V16H118.094V12.1387C118.094 11.6348 117.996 11.2324 117.801 10.9316C117.605 10.6309 117.279 10.4805 116.822 10.4805C116.322 10.4805 115.91 10.6777 115.586 11.0723C115.266 11.4668 115.105 12.043 115.105 12.8008V16H113.916Z" fill="white"/>
<path d="M46.1016 35L50.5859 23.75H53.0078L57.4766 35H55.3047L51.7891 25.3906L48.2734 35H46.1016ZM48.7734 31.6875V30.0547H54.7891V31.6875H48.7734ZM58.7344 38.0469V26.5625H60.5625V28.2812L60.5312 28.1562C60.7969 27.5417 61.1823 27.0911 61.6875 26.8047C62.1927 26.513 62.7448 26.3672 63.3438 26.3672C64.0469 26.3672 64.6562 26.5443 65.1719 26.8984C65.6927 27.2526 66.0964 27.7604 66.3828 28.4219C66.6693 29.0833 66.8125 29.875 66.8125 30.7969C66.8125 31.7083 66.6667 32.4948 66.375 33.1562C66.0885 33.8125 65.6849 34.3177 65.1641 34.6719C64.6432 35.0208 64.0286 35.1953 63.3203 35.1953C62.7266 35.1953 62.1745 35.0547 61.6641 34.7734C61.1589 34.487 60.7604 34.0182 60.4688 33.3672L60.6484 33.3281V38.0469H58.7344ZM62.6719 33.6953C63.2917 33.6953 63.7917 33.4375 64.1719 32.9219C64.5521 32.4062 64.7422 31.6823 64.7422 30.75C64.7422 29.8385 64.5573 29.1302 64.1875 28.625C63.8177 28.1198 63.3177 27.8672 62.6875 27.8672C62.3021 27.8672 61.9479 27.9714 61.625 28.1797C61.3073 28.3828 61.0547 28.7005 60.8672 29.1328C60.6797 29.5599 60.5859 30.1042 60.5859 30.7656C60.5859 31.7448 60.7865 32.4792 61.1875 32.9688C61.5938 33.4531 62.0885 33.6953 62.6719 33.6953ZM68.5625 38.0469V26.5625H70.3906V28.2812L70.3594 28.1562C70.625 27.5417 71.0104 27.0911 71.5156 26.8047C72.0208 26.513 72.5729 26.3672 73.1719 26.3672C73.875 26.3672 74.4844 26.5443 75 26.8984C75.5208 27.2526 75.9245 27.7604 76.2109 28.4219C76.4974 29.0833 76.6406 29.875 76.6406 30.7969C76.6406 31.7083 76.4948 32.4948 76.2031 33.1562C75.9167 33.8125 75.513 34.3177 74.9922 34.6719C74.4714 35.0208 73.8568 35.1953 73.1484 35.1953C72.5547 35.1953 72.0026 35.0547 71.4922 34.7734C70.987 34.487 70.5885 34.0182 70.2969 33.3672L70.4766 33.3281V38.0469H68.5625ZM72.5 33.6953C73.1198 33.6953 73.6198 33.4375 74 32.9219C74.3802 32.4062 74.5703 31.6823 74.5703 30.75C74.5703 29.8385 74.3854 29.1302 74.0156 28.625C73.6458 28.1198 73.1458 27.8672 72.5156 27.8672C72.1302 27.8672 71.776 27.9714 71.4531 28.1797C71.1354 28.3828 70.8828 28.7005 70.6953 29.1328C70.5078 29.5599 70.4141 30.1042 70.4141 30.7656C70.4141 31.7448 70.6146 32.4792 71.0156 32.9688C71.4219 33.4531 71.9167 33.6953 72.5 33.6953ZM86.0859 35.1953C85.237 35.1953 84.4714 35.0625 83.7891 34.7969C83.1068 34.526 82.5443 34.1224 82.1016 33.5859C81.6641 33.0495 81.3802 32.3854 81.25 31.5938L83.4453 31.1484C83.4818 31.9401 83.7214 32.5391 84.1641 32.9453C84.6068 33.3464 85.2292 33.5469 86.0312 33.5469C86.5469 33.5469 86.9661 33.474 87.2891 33.3281C87.6172 33.1771 87.8594 32.974 88.0156 32.7188C88.1771 32.4583 88.2578 32.1641 88.2578 31.8359C88.2578 31.3568 88.0964 30.9948 87.7734 30.75C87.4557 30.5 87.0312 30.3203 86.5 30.2109L85.2344 29.9531C84.8906 29.8854 84.5208 29.7917 84.125 29.6719C83.7344 29.5469 83.3646 29.3724 83.0156 29.1484C82.6667 28.9193 82.3802 28.6172 82.1562 28.2422C81.9375 27.862 81.8281 27.3854 81.8281 26.8125C81.8281 26.0833 82.0156 25.4792 82.3906 25C82.7656 24.5156 83.2682 24.1536 83.8984 23.9141C84.5286 23.6745 85.224 23.5547 85.9844 23.5547C86.7812 23.5547 87.4818 23.6771 88.0859 23.9219C88.6901 24.1667 89.1849 24.5208 89.5703 24.9844C89.9609 25.4427 90.2214 26 90.3516 26.6562L88.1953 27.1016C88.1536 26.7057 88.0495 26.3672 87.8828 26.0859C87.7214 25.7995 87.4896 25.5807 87.1875 25.4297C86.8854 25.2786 86.4922 25.2031 86.0078 25.2031C85.5964 25.2031 85.2344 25.2604 84.9219 25.375C84.6094 25.4896 84.3646 25.6589 84.1875 25.8828C84.0104 26.1016 83.9219 26.3698 83.9219 26.6875C83.9219 27.0885 84.0911 27.4036 84.4297 27.6328C84.7682 27.8568 85.2682 28.0391 85.9297 28.1797L87.2188 28.4531C87.7552 28.5625 88.2656 28.7396 88.75 28.9844C89.2396 29.224 89.638 29.5651 89.9453 30.0078C90.2578 30.4453 90.4141 31.0208 90.4141 31.7344C90.4141 32.474 90.2318 33.1042 89.8672 33.625C89.5078 34.1406 89.0026 34.5312 88.3516 34.7969C87.7057 35.0625 86.9505 35.1953 86.0859 35.1953ZM94.3359 35C93.8255 35 93.4193 34.8646 93.1172 34.5938C92.8151 34.3177 92.6641 33.9401 92.6641 33.4609V28.0312H91.3984V26.5625H92.6641V24.8672L94.5938 24.4141V26.5625H96.2031V28.0312H94.5938V33.1016C94.5938 33.2734 94.6172 33.388 94.6641 33.4453C94.7161 33.5026 94.8229 33.5312 94.9844 33.5312H96.2734V35H94.3359ZM101.406 35.1953C100.578 35.1953 99.8464 35.0104 99.2109 34.6406C98.5807 34.2656 98.0885 33.7474 97.7344 33.0859C97.3854 32.4193 97.2109 31.651 97.2109 30.7812C97.2109 29.9115 97.3854 29.1458 97.7344 28.4844C98.0885 27.8177 98.5807 27.2995 99.2109 26.9297C99.8464 26.5547 100.578 26.3672 101.406 26.3672C102.234 26.3672 102.964 26.5547 103.594 26.9297C104.224 27.2995 104.716 27.8177 105.07 28.4844C105.424 29.1458 105.602 29.9115 105.602 30.7812C105.602 31.651 105.424 32.4193 105.07 33.0859C104.716 33.7474 104.221 34.2656 103.586 34.6406C102.956 35.0104 102.229 35.1953 101.406 35.1953ZM101.406 33.7266C102.068 33.7266 102.591 33.4635 102.977 32.9375C103.362 32.4062 103.555 31.6875 103.555 30.7812C103.555 29.8698 103.362 29.151 102.977 28.625C102.591 28.099 102.068 27.8359 101.406 27.8359C100.74 27.8359 100.214 28.099 99.8281 28.625C99.4479 29.151 99.2578 29.8698 99.2578 30.7812C99.2578 31.6875 99.4479 32.4062 99.8281 32.9375C100.214 33.4635 100.74 33.7266 101.406 33.7266ZM107.344 35V26.5625H109.195V28.4219L109.125 28.1875C109.385 27.5781 109.76 27.1224 110.25 26.8203C110.74 26.5182 111.26 26.3672 111.812 26.3672C111.969 26.3672 112.125 26.3802 112.281 26.4062C112.443 26.4323 112.596 26.4766 112.742 26.5391L112.57 28.2344C112.253 28.1406 111.943 28.0938 111.641 28.0938C111.417 28.0938 111.167 28.1354 110.891 28.2188C110.62 28.2969 110.362 28.4453 110.117 28.6641C109.872 28.8828 109.669 29.1979 109.508 29.6094C109.352 30.0156 109.273 30.5443 109.273 31.1953V35H107.344ZM117.555 35.1953C116.737 35.1953 116.013 35.0156 115.383 34.6562C114.753 34.2969 114.258 33.7865 113.898 33.125C113.539 32.4635 113.359 31.6823 113.359 30.7812C113.359 29.8802 113.536 29.099 113.891 28.4375C114.245 27.776 114.734 27.2656 115.359 26.9062C115.984 26.5469 116.706 26.3672 117.523 26.3672C117.982 26.3672 118.443 26.4375 118.906 26.5781C119.375 26.7188 119.802 26.9688 120.188 27.3281C120.578 27.6823 120.893 28.1745 121.133 28.8047C121.372 29.4297 121.492 30.224 121.492 31.1875H114.602V29.9609H119.773L119.477 30.4062C119.445 29.776 119.336 29.2708 119.148 28.8906C118.966 28.5052 118.729 28.2266 118.438 28.0547C118.151 27.8776 117.831 27.7891 117.477 27.7891C117.029 27.7891 116.651 27.9115 116.344 28.1562C116.036 28.3958 115.802 28.7422 115.641 29.1953C115.484 29.6432 115.406 30.1745 115.406 30.7891C115.406 31.7057 115.586 32.4245 115.945 32.9453C116.305 33.4609 116.836 33.7188 117.539 33.7188C118.018 33.7188 118.427 33.5964 118.766 33.3516C119.104 33.1068 119.357 32.7422 119.523 32.2578L121.32 32.7578C121.117 33.3047 120.828 33.7578 120.453 34.1172C120.078 34.4766 119.641 34.7474 119.141 34.9297C118.641 35.1068 118.112 35.1953 117.555 35.1953Z" fill="white"/>
<defs>
<clipPath id="clip0_2856_1594">
<rect width="24" height="28" fill="white" transform="translate(10 7.5)"/>
</clipPath>
</defs>
</svg>
