<svg width="64" height="64" viewBox="0 0 64 64" fill="none" xmlns="http://www.w3.org/2000/svg">
<g clip-path="url(#clip0_2866_1820)">
<path d="M17.7586 63.9996H46.2411C48.4596 63.9948 50.6082 63.2238 52.3236 61.8171C54.039 60.4103 55.2158 58.4542 55.6549 56.2796L60.1911 33.5884H3.80862L8.34487 56.2784C8.78369 58.4532 9.96036 60.4096 11.6758 61.8166C13.3912 63.2236 15.54 63.9948 17.7586 63.9996ZM38.3999 43.1921C38.3999 42.7678 38.5684 42.3608 38.8685 42.0608C39.1686 41.7607 39.5755 41.5921 39.9999 41.5921C40.4242 41.5921 40.8312 41.7607 41.1312 42.0608C41.4313 42.3608 41.5999 42.7678 41.5999 43.1921V52.7959C41.5999 53.2202 41.4313 53.6272 41.1312 53.9273C40.8312 54.2273 40.4242 54.3959 39.9999 54.3959C39.5755 54.3959 39.1686 54.2273 38.8685 53.9273C38.5684 53.6272 38.3999 53.2202 38.3999 52.7959V43.1921ZM30.3999 43.1921C30.3999 42.7678 30.5684 42.3608 30.8685 42.0608C31.1686 41.7607 31.5755 41.5921 31.9999 41.5921C32.4242 41.5921 32.8312 41.7607 33.1312 42.0608C33.4313 42.3608 33.5999 42.7678 33.5999 43.1921V52.7959C33.5999 53.2202 33.4313 53.6272 33.1312 53.9273C32.8312 54.2273 32.4242 54.3959 31.9999 54.3959C31.5755 54.3959 31.1686 54.2273 30.8685 53.9273C30.5684 53.6272 30.3999 53.2202 30.3999 52.7959V43.1921ZM22.3999 43.1921C22.3999 42.982 22.4413 42.774 22.5217 42.5798C22.6021 42.3857 22.7199 42.2093 22.8685 42.0608C23.0171 41.9122 23.1935 41.7943 23.3876 41.7139C23.5817 41.6335 23.7898 41.5921 23.9999 41.5921C24.21 41.5921 24.418 41.6335 24.6122 41.7139C24.8063 41.7943 24.9827 41.9122 25.1312 42.0608C25.2798 42.2093 25.3977 42.3857 25.4781 42.5798C25.5585 42.774 25.5999 42.982 25.5999 43.1921V52.7959C25.5999 53.006 25.5585 53.2141 25.4781 53.4082C25.3977 53.6023 25.2798 53.7787 25.1312 53.9273C24.9827 54.0758 24.8063 54.1937 24.6122 54.2741C24.418 54.3545 24.21 54.3959 23.9999 54.3959C23.7898 54.3959 23.5817 54.3545 23.3876 54.2741C23.1935 54.1937 23.0171 54.0758 22.8685 53.9273C22.7199 53.7787 22.6021 53.6023 22.5217 53.4082C22.4413 53.2141 22.3999 53.006 22.3999 52.7959V43.1921ZM58.3999 19.1834H53.4624L35.8974 1.61214C34.8633 0.579215 33.4615 -0.000976562 31.9999 -0.000976562C30.5383 -0.000976562 29.1365 0.579215 28.1024 1.61214L10.5374 19.1834H5.59987C4.12865 19.2054 2.72514 19.8052 1.69251 20.8534C0.659888 21.9016 0.0810547 23.3139 0.0810547 24.7853C0.0810547 26.2566 0.659888 27.669 1.69251 28.7171C2.72514 29.7653 4.12865 30.3652 5.59987 30.3871H58.3999C59.8711 30.3652 61.2746 29.7653 62.3072 28.7171C63.3399 27.669 63.9187 26.2566 63.9187 24.7853C63.9187 23.3139 63.3399 21.9016 62.3072 20.8534C61.2746 19.8052 59.8711 19.2054 58.3999 19.1834ZM15.0624 19.1834L30.3649 3.87464C30.7989 3.44168 31.3869 3.19854 31.9999 3.19854C32.6129 3.19854 33.2009 3.44168 33.6349 3.87464L48.9374 19.1834H15.0624Z" fill="#16A34A"/>
</g>
<defs>
<clipPath id="clip0_2866_1820">
<rect width="64" height="64" fill="white"/>
</clipPath>
</defs>
</svg>
