<svg width="306" height="210" viewBox="0 0 306 210" fill="none" xmlns="http://www.w3.org/2000/svg">
<path d="M-32.8985 164.187C-20.0851 152.009 -4.75899 142.787 12.0017 137.169C28.7624 131.55 46.5505 129.672 64.1149 131.667C81.6792 133.663 98.5931 139.482 113.667 148.716C128.74 157.95 141.608 170.375 151.363 185.117C161.119 199.858 167.527 216.558 170.135 234.042C172.743 251.526 171.488 269.369 166.46 286.316C161.431 303.262 152.75 318.902 141.028 332.133C129.306 345.365 114.826 355.867 98.6091 362.902L91.1237 345.644C104.82 339.704 117.048 330.834 126.948 319.659C136.848 308.485 144.179 295.277 148.426 280.964C152.673 266.652 153.733 251.583 151.53 236.817C149.327 222.051 143.916 207.948 135.677 195.498C127.438 183.048 116.571 172.555 103.841 164.756C91.1102 156.957 76.8257 152.043 61.9919 150.358C47.1581 148.673 32.1353 150.259 17.9802 155.004C3.82518 159.749 -9.11834 167.537 -19.9398 177.822L-32.8985 164.187Z" fill="#4CAF50" fill-opacity="0.1"/>
<path d="M-41.5081 129.973C-25.2568 114.528 -5.81856 102.831 15.4392 95.7052C36.6969 88.5793 59.2578 86.1978 81.5347 88.7282C103.812 91.2585 125.264 98.6391 144.382 110.351C163.5 122.063 179.82 137.821 192.193 156.518C204.566 175.215 212.693 196.396 216.001 218.571C219.309 240.745 217.718 263.376 211.34 284.87C204.962 306.364 193.952 326.199 179.084 342.981C164.217 359.762 145.853 373.083 125.284 382.004L115.79 360.117C133.161 352.582 148.67 341.333 161.227 327.16C173.783 312.987 183.081 296.235 188.468 278.083C193.854 259.93 195.198 240.818 192.404 222.09C189.611 203.363 182.747 185.475 172.298 169.685C161.848 153.895 148.065 140.586 131.919 130.695C115.773 120.804 97.6561 114.57 78.8422 112.433C60.0284 110.296 40.9748 112.308 23.0218 118.326C5.06881 124.344 -11.3475 134.222 -25.0725 147.267L-41.5081 129.973Z" fill="#4CAF50" fill-opacity="0.1"/>
<circle cx="53.6776" cy="248.499" r="60.5" transform="rotate(97.168 53.6776 248.499)" fill="#4CAF50" fill-opacity="0.1"/>
</svg>
