<svg width="286" height="260" viewBox="0 0 286 260" fill="none" xmlns="http://www.w3.org/2000/svg">
<path d="M151.65 321.924C137.969 310.73 126.906 296.675 119.24 280.746C111.574 264.817 107.492 247.403 107.279 229.727C107.067 212.051 110.73 194.543 118.012 178.435C125.293 162.327 136.015 148.01 149.424 136.491C162.833 124.972 178.603 116.531 195.625 111.761C212.646 106.992 230.506 106.01 247.948 108.885C265.39 111.759 281.99 118.421 296.581 128.401C311.172 138.38 323.399 151.436 332.402 166.649L316.214 176.229C308.61 163.381 298.284 152.355 285.962 143.927C273.639 135.499 259.62 129.873 244.889 127.445C230.159 125.017 215.075 125.846 200.7 129.874C186.324 133.902 173.006 141.031 161.681 150.759C150.357 160.487 141.302 172.579 135.152 186.183C129.003 199.787 125.909 214.573 126.089 229.501C126.268 244.429 129.716 259.136 136.19 272.589C142.664 286.041 152.007 297.912 163.562 307.365L151.65 321.924Z" fill="#16A34A" fill-opacity="0.1"/>
<path d="M118.778 334.736C101.425 320.539 87.3939 302.712 77.6713 282.509C67.9486 262.307 62.7706 240.22 62.5014 217.801C62.2322 195.382 66.8784 173.177 76.1132 152.747C85.348 132.317 98.947 114.158 115.954 99.5487C132.96 84.9391 152.962 74.2332 174.55 68.1842C196.139 62.1351 218.791 60.8898 240.913 64.5359C263.035 68.182 284.089 76.6309 302.595 89.2882C321.1 101.946 336.608 118.504 348.026 137.799L327.495 149.949C317.851 133.654 304.755 119.67 289.126 108.98C273.497 98.2907 255.716 91.1552 237.033 88.076C218.35 84.9967 199.22 86.0484 180.987 91.1571C162.755 96.2657 145.863 105.307 131.5 117.646C117.137 129.984 105.652 145.32 97.8531 162.574C90.0539 179.828 86.13 198.581 86.3573 217.514C86.5847 236.448 90.9577 255.102 99.1689 272.163C107.38 289.225 119.23 304.281 133.885 316.271L118.778 334.736Z" fill="#16A34A" fill-opacity="0.1"/>
<circle cx="234.5" cy="215.5" r="60.5" fill="#16A34A" fill-opacity="0.1"/>
</svg>
