<svg width="63" height="63" viewBox="0 0 63 63" fill="none" xmlns="http://www.w3.org/2000/svg">
<path d="M40.9006 56.4502H11.5232V6.55348H40.9006V21.2428H43.8537V6.55594C43.8492 4.81902 43.1574 3.1545 41.9294 1.92608C40.7015 0.697656 39.0372 0.00519638 37.3003 0L15.1223 0C13.3858 0.00584524 11.7222 0.698591 10.4948 1.92694C9.26733 3.1553 8.57583 4.81944 8.57129 6.55594V56.4502C8.57616 58.186 9.26796 59.8494 10.4955 61.0767C11.723 62.304 13.3865 62.9955 15.1223 63H37.3003C39.0361 62.9955 40.6996 62.304 41.9271 61.0767C43.1546 59.8494 43.8464 58.186 43.8513 56.4502V40.491H40.8982L40.9006 56.4502ZM26.2088 5.54695C26.0586 5.54768 25.9116 5.50376 25.7863 5.42075C25.6611 5.33775 25.5634 5.21941 25.5056 5.08076C25.4478 4.94211 25.4324 4.7894 25.4616 4.64202C25.4907 4.49465 25.563 4.35925 25.6692 4.25303C25.7754 4.1468 25.9108 4.07454 26.0582 4.04541C26.2055 4.01628 26.3583 4.0316 26.4969 4.08943C26.6356 4.14725 26.7539 4.24498 26.8369 4.37019C26.9199 4.4954 26.9638 4.64245 26.9631 4.79268C26.9625 4.99252 26.8828 5.184 26.7415 5.32531C26.6002 5.46663 26.4087 5.5463 26.2088 5.54695ZM22.1754 2.42156C22.1754 2.20008 22.5445 2.01674 22.9825 2.01674H29.4363C29.8793 2.01674 30.2423 2.20008 30.2423 2.42156V2.62336C30.2423 2.84361 29.8732 3.02449 29.4363 3.02449H22.985C22.542 3.02449 22.1778 2.84238 22.1778 2.62336L22.1754 2.42156ZM30.2448 60.181C30.2438 60.3943 30.1585 60.5986 30.0076 60.7494C29.8566 60.9001 29.6521 60.9851 29.4388 60.9857H22.985C22.7714 60.9854 22.5667 60.9006 22.4155 60.7498C22.2642 60.599 22.1788 60.3945 22.1778 60.181V59.7762C22.1788 59.5624 22.2641 59.3576 22.4153 59.2065C22.5665 59.0553 22.7712 58.97 22.985 58.969H29.4388C29.6524 58.9703 29.8568 59.0558 30.0077 59.2069C30.1586 59.358 30.2438 59.5626 30.2448 59.7762V60.181Z" fill="#16A34A"/>
<path d="M33.0466 38.6666H49.3909L54.4285 23.0692H30.8945L29.7871 19.3359H23.1426V21.4757H27.9808L29.6764 27.2122L33.0466 38.6666ZM43.8255 36.9144H39.2654L39.0058 33.8702H44.0864L43.8255 36.9144ZM44.1947 32.6435H38.9037L38.6366 29.5427H44.458L44.1947 32.6435ZM46.0637 25.236H51.4471L50.5328 28.3122H45.7967L46.0637 25.236ZM45.6946 29.5427H50.1649L49.2445 32.641H45.4301L45.6946 29.5427ZM45.3255 33.8702H48.8803L47.9722 36.9144H45.0585L45.3255 33.8702ZM44.8333 25.2336L44.57 28.3097H38.5407L38.2773 25.2336H44.8333ZM38.03 36.9144H34.725L33.8809 33.8727H37.7753L38.03 36.9144ZM37.6609 32.6435H33.5388L32.6775 29.5451H37.3988L37.6609 32.6435ZM37.0272 25.236L37.2905 28.3122H32.4437L31.5356 25.236H37.0272Z" fill="#16A34A"/>
<path d="M33.1956 39.0391C32.7378 39.0388 32.2901 39.1744 31.9093 39.4286C31.5285 39.6828 31.2316 40.0443 31.0563 40.4673C30.881 40.8903 30.835 41.3557 30.9243 41.8048C31.0136 42.2539 31.234 42.6664 31.5578 42.9902C31.8816 43.3139 32.2941 43.5344 32.7432 43.6237C33.1922 43.7129 33.6577 43.667 34.0807 43.4917C34.5037 43.3163 34.8651 43.0195 35.1194 42.6387C35.3736 42.2579 35.5091 41.8102 35.5089 41.3523C35.5091 41.0485 35.4493 40.7476 35.3331 40.4669C35.217 40.1862 35.0466 39.9311 34.8317 39.7162C34.6169 39.5014 34.3618 39.331 34.0811 39.2148C33.8003 39.0986 33.4995 39.0389 33.1956 39.0391Z" fill="#16A34A"/>
<path d="M48.9417 39.0391C48.4838 39.0388 48.0362 39.1744 47.6554 39.4286C47.2746 39.6828 46.9777 40.0443 46.8024 40.4673C46.6271 40.8903 46.5811 41.3557 46.6704 41.8048C46.7597 42.2539 46.9801 42.6664 47.3039 42.9902C47.6276 43.3139 48.0402 43.5344 48.4893 43.6237C48.9383 43.7129 49.4038 43.667 49.8268 43.4917C50.2498 43.3163 50.6112 43.0195 50.8654 42.6387C51.1197 42.2579 51.2552 41.8102 51.255 41.3523C51.255 40.7388 51.0113 40.1504 50.5775 39.7166C50.1436 39.2828 49.5552 39.0391 48.9417 39.0391Z" fill="#16A34A"/>
</svg>
