<svg width="80" height="80" viewBox="0 0 80 80" fill="none" xmlns="http://www.w3.org/2000/svg">
<path d="M51.9374 71.6828H14.6327V8.32187H51.9374V26.975H55.6874V8.325C55.6816 6.11939 54.8031 4.00572 53.2438 2.44581C51.6845 0.885912 49.5711 0.00659858 47.3655 0L19.203 0C16.998 0.00742253 14.8854 0.8871 13.3268 2.44691C11.7681 4.00673 10.89 6.11993 10.8843 8.325V71.6828C10.8905 73.887 11.7689 75.9992 13.3277 77.5577C14.8865 79.1161 16.9988 79.9942 19.203 80H47.3655C49.5698 79.9942 51.6821 79.1161 53.2408 77.5577C54.7996 75.9992 55.6781 73.887 55.6843 71.6828V51.4172H51.9343L51.9374 71.6828ZM33.2812 7.04375C33.0904 7.04468 32.9037 6.9889 32.7447 6.88349C32.5857 6.77809 32.4616 6.62782 32.3881 6.45175C32.3147 6.27569 32.2953 6.08178 32.3322 5.89463C32.3692 5.70749 32.461 5.53556 32.5959 5.40067C32.7308 5.26578 32.9027 5.17402 33.0898 5.13703C33.277 5.10004 33.4709 5.11949 33.647 5.19292C33.823 5.26635 33.9733 5.39045 34.0787 5.54944C34.1841 5.70844 34.2399 5.89518 34.239 6.08594C34.2381 6.33971 34.137 6.58286 33.9575 6.7623C33.7781 6.94175 33.5349 7.04293 33.2812 7.04375ZM28.1593 3.075C28.1593 2.79375 28.628 2.56094 29.1843 2.56094H37.3796C37.9421 2.56094 38.403 2.79375 38.403 3.075V3.33125C38.403 3.61094 37.9343 3.84063 37.3796 3.84063H29.1874C28.6249 3.84063 28.1624 3.60938 28.1624 3.33125L28.1593 3.075ZM38.4062 76.4203C38.4049 76.6912 38.2966 76.9507 38.1049 77.1421C37.9132 77.3335 37.6536 77.4414 37.3827 77.4422H29.1874C28.9162 77.4418 28.6562 77.3341 28.4642 77.1426C28.2721 76.9512 28.1636 76.6915 28.1624 76.4203V75.9062C28.1636 75.6348 28.272 75.3748 28.464 75.1828C28.6559 74.9909 28.9159 74.8825 29.1874 74.8812H37.3827C37.6539 74.8829 37.9135 74.9915 38.1051 75.1834C38.2968 75.3753 38.4049 75.635 38.4062 75.9062V76.4203Z" fill="#041739"/>
<path d="M41.9643 49.0996H62.7189L69.1158 29.2934H39.2314L37.8252 24.5527H29.3877V27.2699H35.5314L37.6846 34.5543L41.9643 49.0996ZM55.6518 46.8746H49.8611L49.5314 43.009H55.983L55.6518 46.8746ZM56.1205 41.4512H49.4018L49.0627 37.5137H56.4549L56.1205 41.4512ZM58.4939 32.0449H65.3299L64.1689 35.9512H58.1549L58.4939 32.0449ZM58.0252 37.5137H63.7018L62.533 41.448H57.6893L58.0252 37.5137ZM57.5564 43.009H62.0705L60.9174 46.8746H57.2174L57.5564 43.009ZM56.9314 32.0418L56.5971 35.948H48.9408L48.6064 32.0418H56.9314ZM48.2924 46.8746H44.0955L43.0236 43.0121H47.9689L48.2924 46.8746ZM47.8236 41.4512H42.5893L41.4955 37.5168H47.4908L47.8236 41.4512ZM47.0189 32.0449L47.3533 35.9512H41.1986L40.0455 32.0449H47.0189Z" fill="#041739"/>
<path d="M42.153 49.5732C41.5716 49.5729 41.0032 49.7451 40.5196 50.0679C40.036 50.3907 39.6591 50.8497 39.4364 51.3869C39.2138 51.924 39.1554 52.515 39.2688 53.0853C39.3822 53.6556 39.6621 54.1794 40.0732 54.5905C40.4844 55.0017 41.0082 55.2816 41.5785 55.395C42.1487 55.5083 42.7398 55.45 43.2769 55.2273C43.814 55.0047 44.273 54.6278 44.5959 54.1442C44.9187 53.6606 45.0908 53.0922 45.0905 52.5107C45.0907 52.1249 45.0149 51.7429 44.8673 51.3864C44.7198 51.0299 44.5034 50.706 44.2306 50.4332C43.9578 50.1603 43.6339 49.944 43.2774 49.7964C42.9209 49.6489 42.5388 49.573 42.153 49.5732Z" fill="#041739"/>
<path d="M62.1486 49.5732C61.5672 49.5729 60.9988 49.7451 60.5152 50.0679C60.0316 50.3907 59.6547 50.8497 59.432 51.3869C59.2094 51.924 59.1511 52.515 59.2644 53.0853C59.3778 53.6556 59.6577 54.1794 60.0688 54.5905C60.48 55.0017 61.0038 55.2816 61.5741 55.395C62.1443 55.5083 62.7354 55.45 63.2725 55.2273C63.8096 55.0047 64.2686 54.6278 64.5915 54.1442C64.9143 53.6606 65.0864 53.0922 65.0861 52.5107C65.0861 51.7317 64.7766 50.9845 64.2258 50.4336C63.6749 49.8827 62.9277 49.5732 62.1486 49.5732Z" fill="#041739"/>
</svg>
