<svg width="64" height="64" viewBox="0 0 64 64" fill="none" xmlns="http://www.w3.org/2000/svg">
<path d="M54.2375 15.9996H0.1625C0.536679 14.1957 1.51965 12.5753 2.9466 11.4101C4.37356 10.2449 6.15774 9.60565 8 9.59961H46.4C48.2423 9.60565 50.0264 10.2449 51.4534 11.4101C52.8804 12.5753 53.8633 14.1957 54.2375 15.9996ZM64 40.7996V50.3996C64 51.4605 63.5786 52.4779 62.8284 53.228C62.0783 53.9782 61.0609 54.3996 60 54.3996H45.6C44.5391 54.3996 43.5217 53.9782 42.7716 53.228C42.0214 52.4779 41.6 51.4605 41.6 50.3996V40.7996C41.6 39.7387 42.0214 38.7213 42.7716 37.9712C43.5217 37.221 44.5391 36.7996 45.6 36.7996H46.4C46.4 35.1022 47.0743 33.4744 48.2745 32.2741C49.4748 31.0739 51.1026 30.3996 52.8 30.3996C54.4974 30.3996 56.1253 31.0739 57.3255 32.2741C58.5257 33.4744 59.2 35.1022 59.2 36.7996H60C61.0609 36.7996 62.0783 37.221 62.8284 37.9712C63.5786 38.7213 64 39.7387 64 40.7996ZM54.4 44.7996C54.4 44.3753 54.2314 43.9683 53.9314 43.6682C53.6313 43.3682 53.2243 43.1996 52.8 43.1996C52.3757 43.1996 51.9687 43.3682 51.6686 43.6682C51.3686 43.9683 51.2 44.3753 51.2 44.7996V46.3996C51.2 46.824 51.3686 47.2309 51.6686 47.531C51.9687 47.831 52.3757 47.9996 52.8 47.9996C53.2243 47.9996 53.6313 47.831 53.9314 47.531C54.2314 47.2309 54.4 46.824 54.4 46.3996V44.7996ZM56 36.7996C56 35.9509 55.6629 35.137 55.0627 34.5369C54.4626 33.9368 53.6487 33.5996 52.8 33.5996C51.9513 33.5996 51.1374 33.9368 50.5373 34.5369C49.9371 35.137 49.6 35.9509 49.6 36.7996H56ZM43.6587 33.8646C42.1467 34.2903 40.8149 35.198 39.8657 36.4497C38.9165 37.7014 38.4019 39.2287 38.4 40.7996V47.9996H8C5.88019 47.9933 3.849 47.1485 2.35007 45.6495C0.851132 44.1506 0.00626531 42.1194 0 39.9996L0 22.3996H54.4V27.3346C52.1234 26.9494 49.7843 27.3976 47.8114 28.5972C45.8386 29.7968 44.3643 31.6674 43.6587 33.8659V33.8646ZM8 31.9996C8 32.424 8.16857 32.8309 8.46863 33.131C8.76869 33.431 9.17565 33.5996 9.6 33.5996H19.2C19.6243 33.5996 20.0313 33.431 20.3314 33.131C20.6314 32.8309 20.8 32.424 20.8 31.9996C20.8 31.5753 20.6314 31.1683 20.3314 30.8682C20.0313 30.5682 19.6243 30.3996 19.2 30.3996H9.6C9.17565 30.3996 8.76869 30.5682 8.46863 30.8682C8.16857 31.1683 8 31.5753 8 31.9996ZM28.8 38.3996C28.8 37.9753 28.6314 37.5683 28.3314 37.2682C28.0313 36.9682 27.6243 36.7996 27.2 36.7996H9.6C9.17565 36.7996 8.76869 36.9682 8.46863 37.2682C8.16857 37.5683 8 37.9753 8 38.3996C8 38.824 8.16857 39.2309 8.46863 39.531C8.76869 39.831 9.17565 39.9996 9.6 39.9996H27.2C27.6243 39.9996 28.0313 39.831 28.3314 39.531C28.6314 39.2309 28.8 38.824 28.8 38.3996Z" fill="#16A34A"/>
</svg>
