<svg width="140" height="43" viewBox="0 0 140 43" fill="none" xmlns="http://www.w3.org/2000/svg">
<rect width="139.094" height="43" rx="10" fill="#011F15"/>
<path d="M10.4664 9.03744C10.1385 9.42952 9.97295 9.93214 10.0036 10.4423V32.5584C9.97286 33.0687 10.1384 33.5713 10.4664 33.9633L10.5404 34.0354L22.9294 21.6465V21.3542L10.5404 8.96484L10.4664 9.03744Z" fill="url(#paint0_linear_2856_1598)"/>
<path d="M27.0586 25.7787L22.9292 21.6473V21.355L27.0596 17.2246L27.1527 17.2777L32.0455 20.0578C33.4431 20.8518 33.4431 22.151 32.0455 22.9455L27.1527 25.7256L27.0586 25.7787Z" fill="url(#paint1_linear_2856_1598)"/>
<path d="M27.1528 25.7239L22.9293 21.5L10.4663 33.9629C10.7511 34.2141 11.1147 34.3577 11.4943 34.3689C11.8738 34.3801 12.2453 34.2582 12.5444 34.0243L27.1528 25.7239Z" fill="url(#paint2_linear_2856_1598)"/>
<path d="M27.1528 17.2766L12.5444 8.97617C12.2453 8.74226 11.8738 8.62036 11.4943 8.63157C11.1147 8.64278 10.7511 8.78641 10.4663 9.03757L22.9293 21.5006L27.1528 17.2766Z" fill="url(#paint3_linear_2856_1598)"/>
<path opacity="0.2" d="M27.0597 25.6309L12.5444 33.8782C12.2568 34.0971 11.9058 34.2165 11.5444 34.2185C11.183 34.2204 10.8307 34.1047 10.5408 33.8889L10.4663 33.9634L10.5403 34.0355L10.5408 34.035C10.8307 34.2509 11.1829 34.3667 11.5444 34.3648C11.9059 34.3628 12.2569 34.2433 12.5444 34.0243L27.1528 25.7239L27.0597 25.6309Z" fill="black"/>
<path opacity="0.12" d="M10.4664 33.817C10.1385 33.4249 9.97296 32.9223 10.0036 32.4121V32.5582C9.97294 33.0684 10.1385 33.571 10.4664 33.9631L10.5409 33.8886L10.4664 33.817Z" fill="black"/>
<path opacity="0.12" d="M32.046 22.7973L27.0601 25.6305L27.1532 25.7235L32.046 22.9434C32.3338 22.8185 32.5828 22.6187 32.7672 22.3648C32.9516 22.111 33.0645 21.8123 33.0943 21.5C33.0324 21.7828 32.9054 22.0474 32.7235 22.2726C32.5415 22.4978 32.3095 22.6774 32.046 22.7973Z" fill="black"/>
<path opacity="0.25" d="M12.5443 9.12334L32.0455 20.2033C32.3092 20.3232 32.5412 20.5029 32.7232 20.7282C32.9052 20.9535 33.0321 21.2182 33.0938 21.5011C33.0643 21.1887 32.9514 20.8899 32.767 20.6359C32.5826 20.3819 32.3335 20.1821 32.0455 20.0572L12.5443 8.97724C11.1467 8.18314 10.0034 8.84274 10.0034 10.4435V10.5896C10.0034 8.98894 11.1467 8.32934 12.5443 9.12334Z" fill="white"/>
<path d="M41.6177 16.1465C40.8091 16.1465 40.1021 15.9609 39.4966 15.5898C38.8911 15.2148 38.4204 14.6973 38.0845 14.0371C37.7524 13.377 37.5864 12.6133 37.5864 11.7461C37.5864 10.9023 37.7466 10.1562 38.0669 9.50781C38.3911 8.85547 38.8521 8.34375 39.4497 7.97266C40.0513 7.60156 40.77 7.41602 41.606 7.41602C42.4771 7.41602 43.2329 7.64062 43.8735 8.08984C44.5142 8.53516 44.938 9.20312 45.145 10.0938L43.8325 10.4043C43.6763 9.74414 43.4009 9.25586 43.0063 8.93945C42.6118 8.62305 42.1411 8.46484 41.5942 8.46484C41.0317 8.46484 40.5513 8.60742 40.1528 8.89258C39.7583 9.17383 39.4556 9.5625 39.2446 10.0586C39.0376 10.5547 38.9341 11.127 38.9341 11.7754C38.9341 12.4355 39.0415 13.0156 39.2563 13.5156C39.4712 14.0156 39.7739 14.4043 40.1646 14.6816C40.5552 14.959 41.0181 15.0977 41.5532 15.0977C42.1313 15.0977 42.6274 14.9258 43.0415 14.582C43.4595 14.2344 43.729 13.75 43.8501 13.1289L45.2036 13.4629C44.9731 14.334 44.5356 15 43.8911 15.4609C43.2505 15.918 42.4927 16.1465 41.6177 16.1465ZM49.1704 16.1465C48.5649 16.1465 48.0298 16.0059 47.5649 15.7246C47.104 15.4434 46.7446 15.0547 46.4868 14.5586C46.229 14.0625 46.1001 13.4883 46.1001 12.8359C46.1001 12.1836 46.229 11.6094 46.4868 11.1133C46.7446 10.6172 47.104 10.2285 47.5649 9.94727C48.0298 9.66602 48.5649 9.52539 49.1704 9.52539C49.7759 9.52539 50.3091 9.66602 50.77 9.94727C51.2349 10.2285 51.5962 10.6172 51.854 11.1133C52.1118 11.6094 52.2407 12.1836 52.2407 12.8359C52.2407 13.4883 52.1118 14.0625 51.854 14.5586C51.5962 15.0547 51.2349 15.4434 50.77 15.7246C50.3091 16.0059 49.7759 16.1465 49.1704 16.1465ZM49.1704 15.1973C49.7251 15.1973 50.1626 14.9863 50.4829 14.5645C50.8032 14.1387 50.9634 13.5625 50.9634 12.8359C50.9634 12.1055 50.8032 11.5293 50.4829 11.1074C50.1626 10.6855 49.7251 10.4746 49.1704 10.4746C48.6157 10.4746 48.1782 10.6855 47.8579 11.1074C47.5376 11.5293 47.3774 12.1055 47.3774 12.8359C47.3774 13.5625 47.5376 14.1387 47.8579 14.5645C48.1782 14.9863 48.6157 15.1973 49.1704 15.1973ZM53.6353 16V9.67188H54.7661V10.7383C54.9263 10.3984 55.1743 10.1113 55.5103 9.87695C55.8501 9.64258 56.2524 9.52539 56.7173 9.52539C57.1431 9.52539 57.5103 9.63867 57.8188 9.86523C58.1274 10.0918 58.356 10.4141 58.5044 10.832C58.7153 10.4297 58.9946 10.1113 59.3423 9.87695C59.6899 9.64258 60.0884 9.52539 60.5376 9.52539C61.1509 9.52539 61.6313 9.74805 61.979 10.1934C62.3306 10.6348 62.5063 11.2539 62.5063 12.0508V16H61.3169V12.0977C61.3169 11.7734 61.2837 11.4902 61.2173 11.248C61.1509 11.0059 61.0376 10.8184 60.8774 10.6855C60.7212 10.5488 60.5063 10.4805 60.2329 10.4805C59.9282 10.4805 59.6567 10.5723 59.4185 10.7559C59.1841 10.9355 59.0005 11.1934 58.8677 11.5293C58.7349 11.8652 58.6685 12.2695 58.6685 12.7422V16H57.479V12.0977C57.479 11.7734 57.4438 11.4902 57.3735 11.248C57.3071 11.0059 57.1958 10.8184 57.0396 10.6855C56.8872 10.5488 56.6743 10.4805 56.4009 10.4805C56.0962 10.4805 55.8247 10.5703 55.5864 10.75C55.3481 10.9297 55.1606 11.1875 55.0239 11.5234C54.8911 11.8594 54.8247 12.2656 54.8247 12.7422V16H53.6353ZM64.2466 16V9.67188H65.436V16H64.2466ZM64.8442 8.69336C64.5825 8.69336 64.3638 8.60742 64.188 8.43555C64.0161 8.25977 63.9302 8.04297 63.9302 7.78516C63.9302 7.51953 64.0161 7.30078 64.188 7.12891C64.3638 6.95703 64.5825 6.87109 64.8442 6.87109C65.106 6.87109 65.3228 6.95703 65.4946 7.12891C65.6704 7.30078 65.7583 7.51953 65.7583 7.78516C65.7583 8.04297 65.6704 8.25977 65.4946 8.43555C65.3228 8.60742 65.106 8.69336 64.8442 8.69336ZM67.2759 16V9.67188H68.4067V11.1074L68.3657 10.8496C68.5415 10.4707 68.8091 10.1562 69.1685 9.90625C69.5278 9.65234 69.9653 9.52539 70.481 9.52539C70.9419 9.52539 71.3325 9.62891 71.6528 9.83594C71.9731 10.043 72.2173 10.334 72.3853 10.709C72.5571 11.084 72.6431 11.5312 72.6431 12.0508V16H71.4536V12.1387C71.4536 11.6348 71.356 11.2324 71.1606 10.9316C70.9653 10.6309 70.6392 10.4805 70.1821 10.4805C69.6821 10.4805 69.27 10.6777 68.9458 11.0723C68.6255 11.4668 68.4653 12.043 68.4653 12.8008V16H67.2759ZM76.7563 18.4316C75.7915 18.4316 75.0806 18.2988 74.6235 18.0332C74.1665 17.7676 73.938 17.3574 73.938 16.8027C73.938 16.4824 74.02 16.2031 74.1841 15.9648C74.3481 15.7266 74.6157 15.5449 74.9868 15.4199C74.8384 15.3262 74.7173 15.2051 74.6235 15.0566C74.5337 14.9082 74.4888 14.7422 74.4888 14.5586C74.4888 14.332 74.5591 14.1328 74.6997 13.9609C74.8403 13.7852 75.0415 13.6582 75.3032 13.5801C74.9907 13.3926 74.7466 13.1426 74.5708 12.8301C74.3989 12.5176 74.313 12.1562 74.313 11.7461C74.313 11.293 74.4165 10.9004 74.6235 10.5684C74.8306 10.2363 75.1255 9.98047 75.5083 9.80078C75.8911 9.61719 76.3442 9.52539 76.8677 9.52539C77.3911 9.52539 77.8442 9.61719 78.2271 9.80078C78.6138 9.98047 78.9126 10.2383 79.1235 10.5742C79.3345 10.9062 79.4399 11.3008 79.4399 11.7578C79.4399 12.207 79.3345 12.5957 79.1235 12.9238C78.9126 13.252 78.6138 13.5059 78.2271 13.6855C77.8403 13.8652 77.3813 13.9551 76.8501 13.9551H76.3403C75.8755 13.9551 75.6431 14.0898 75.6431 14.3594C75.6431 14.6172 75.8696 14.7461 76.3228 14.7461H77.5942C78.0747 14.7461 78.4673 14.8027 78.772 14.916C79.0767 15.0254 79.313 15.1719 79.481 15.3555C79.6528 15.5352 79.772 15.7324 79.8384 15.9473C79.9048 16.1621 79.938 16.375 79.938 16.5859C79.938 17.2109 79.7056 17.6738 79.2407 17.9746C78.7759 18.2793 78.0571 18.4316 77.0845 18.4316H76.7563ZM76.7681 17.5527H77.0903C78.1724 17.5527 78.7134 17.2285 78.7134 16.5801C78.7134 16.3145 78.6157 16.0977 78.4204 15.9297C78.229 15.7578 77.895 15.6719 77.4185 15.6719H76.3989C76.0513 15.6719 75.7544 15.7461 75.5083 15.8945C75.2661 16.0391 75.145 16.2793 75.145 16.6152C75.145 16.9316 75.2759 17.166 75.5376 17.3184C75.8032 17.4746 76.2134 17.5527 76.7681 17.5527ZM76.8677 13.1523C77.3208 13.1523 77.6685 13.0332 77.9106 12.7949C78.1567 12.5527 78.2798 12.207 78.2798 11.7578C78.2798 11.3086 78.1567 10.9609 77.9106 10.7148C77.6685 10.4648 77.3208 10.3398 76.8677 10.3398C76.4185 10.3398 76.0728 10.4629 75.8306 10.709C75.5884 10.9551 75.4673 11.3047 75.4673 11.7578C75.4673 12.207 75.5884 12.5527 75.8306 12.7949C76.0728 13.0332 76.4185 13.1523 76.8677 13.1523ZM77.8813 10.2578V9.625C77.8813 9.32422 77.9829 9.08398 78.186 8.9043C78.3931 8.7207 78.6509 8.62891 78.9595 8.62891H79.6802V9.57227H79.0356C78.9146 9.57227 78.8345 9.59375 78.7954 9.63672C78.7603 9.67969 78.7427 9.76562 78.7427 9.89453V10.2578H77.8813ZM86.354 16.1465C85.8892 16.1465 85.4634 16.0723 85.0767 15.9238C84.6899 15.7754 84.3677 15.5508 84.1099 15.25C83.856 14.9453 83.688 14.5566 83.606 14.084L84.7896 13.8555C84.8286 14.3125 84.9849 14.6543 85.2583 14.8809C85.5356 15.1074 85.8892 15.2207 86.3188 15.2207C86.7485 15.2207 87.0825 15.1191 87.3208 14.916C87.563 14.709 87.6841 14.4609 87.6841 14.1719C87.6841 13.9219 87.5962 13.7207 87.4204 13.5684C87.2485 13.416 86.9849 13.3086 86.6294 13.2461L85.9146 13.1113C85.7036 13.0762 85.481 13.0254 85.2466 12.959C85.0161 12.8887 84.7993 12.791 84.5962 12.666C84.397 12.541 84.2329 12.375 84.104 12.168C83.979 11.9609 83.9165 11.6992 83.9165 11.3828C83.9165 10.9648 84.0259 10.6211 84.2446 10.3516C84.4634 10.0781 84.7563 9.87305 85.1235 9.73633C85.4946 9.5957 85.9009 9.52539 86.3423 9.52539C86.7993 9.52539 87.2036 9.5957 87.5552 9.73633C87.9067 9.87695 88.1938 10.0801 88.4165 10.3457C88.6431 10.6074 88.7915 10.9277 88.8618 11.3066L87.6431 11.5527C87.6157 11.334 87.5552 11.1426 87.4614 10.9785C87.3677 10.8105 87.231 10.6797 87.0513 10.5859C86.8716 10.4922 86.6353 10.4453 86.3423 10.4453C85.9985 10.4453 85.7056 10.5176 85.4634 10.6621C85.2251 10.8027 85.106 11.0137 85.106 11.2949C85.106 11.459 85.1509 11.5996 85.2407 11.7168C85.3345 11.8301 85.4692 11.9238 85.645 11.998C85.8208 12.0684 86.0376 12.1309 86.2954 12.1855L87.0396 12.3379C87.3716 12.4004 87.6782 12.498 87.9595 12.6309C88.2446 12.7598 88.4731 12.9434 88.645 13.1816C88.8208 13.416 88.9087 13.7266 88.9087 14.1133C88.9087 14.5391 88.7993 14.9043 88.5806 15.209C88.3618 15.5137 88.061 15.7461 87.6782 15.9062C87.2954 16.0664 86.854 16.1465 86.354 16.1465ZM93.1274 16.1465C92.522 16.1465 91.9868 16.0059 91.522 15.7246C91.061 15.4434 90.7017 15.0547 90.4438 14.5586C90.186 14.0625 90.0571 13.4883 90.0571 12.8359C90.0571 12.1836 90.186 11.6094 90.4438 11.1133C90.7017 10.6172 91.061 10.2285 91.522 9.94727C91.9868 9.66602 92.522 9.52539 93.1274 9.52539C93.7329 9.52539 94.2661 9.66602 94.7271 9.94727C95.1919 10.2285 95.5532 10.6172 95.811 11.1133C96.0688 11.6094 96.1978 12.1836 96.1978 12.8359C96.1978 13.4883 96.0688 14.0625 95.811 14.5586C95.5532 15.0547 95.1919 15.4434 94.7271 15.7246C94.2661 16.0059 93.7329 16.1465 93.1274 16.1465ZM93.1274 15.1973C93.6821 15.1973 94.1196 14.9863 94.4399 14.5645C94.7603 14.1387 94.9204 13.5625 94.9204 12.8359C94.9204 12.1055 94.7603 11.5293 94.4399 11.1074C94.1196 10.6855 93.6821 10.4746 93.1274 10.4746C92.5728 10.4746 92.1353 10.6855 91.8149 11.1074C91.4946 11.5293 91.3345 12.1055 91.3345 12.8359C91.3345 13.5625 91.4946 14.1387 91.8149 14.5645C92.1353 14.9863 92.5728 15.1973 93.1274 15.1973ZM100.545 16.1465C99.9399 16.1465 99.4048 16.0059 98.9399 15.7246C98.479 15.4434 98.1196 15.0547 97.8618 14.5586C97.604 14.0625 97.4751 13.4883 97.4751 12.8359C97.4751 12.1836 97.604 11.6094 97.8618 11.1133C98.1196 10.6172 98.479 10.2285 98.9399 9.94727C99.4048 9.66602 99.9399 9.52539 100.545 9.52539C101.151 9.52539 101.684 9.66602 102.145 9.94727C102.61 10.2285 102.971 10.6172 103.229 11.1133C103.487 11.6094 103.616 12.1836 103.616 12.8359C103.616 13.4883 103.487 14.0625 103.229 14.5586C102.971 15.0547 102.61 15.4434 102.145 15.7246C101.684 16.0059 101.151 16.1465 100.545 16.1465ZM100.545 15.1973C101.1 15.1973 101.538 14.9863 101.858 14.5645C102.178 14.1387 102.338 13.5625 102.338 12.8359C102.338 12.1055 102.178 11.5293 101.858 11.1074C101.538 10.6855 101.1 10.4746 100.545 10.4746C99.9907 10.4746 99.5532 10.6855 99.2329 11.1074C98.9126 11.5293 98.7524 12.1055 98.7524 12.8359C98.7524 13.5625 98.9126 14.1387 99.2329 14.5645C99.5532 14.9863 99.9907 15.1973 100.545 15.1973ZM105.01 16V9.67188H106.141V11.1074L106.1 10.8496C106.276 10.4707 106.543 10.1562 106.903 9.90625C107.262 9.65234 107.7 9.52539 108.215 9.52539C108.676 9.52539 109.067 9.62891 109.387 9.83594C109.708 10.043 109.952 10.334 110.12 10.709C110.292 11.084 110.377 11.5312 110.377 12.0508V16H109.188V12.1387C109.188 11.6348 109.09 11.2324 108.895 10.9316C108.7 10.6309 108.374 10.4805 107.917 10.4805C107.417 10.4805 107.004 10.6777 106.68 11.0723C106.36 11.4668 106.2 12.043 106.2 12.8008V16H105.01Z" fill="white"/>
<path d="M43.3521 35.1953C42.1125 35.1953 41.0734 34.9505 40.2349 34.4609C39.3963 33.9714 38.7635 33.2917 38.3364 32.4219C37.9146 31.5521 37.7036 30.5495 37.7036 29.4141C37.7036 28.2578 37.9146 27.2396 38.3364 26.3594C38.7635 25.4792 39.3807 24.7917 40.188 24.2969C41.0005 23.8021 41.9771 23.5547 43.1177 23.5547C43.8937 23.5547 44.6073 23.6797 45.2583 23.9297C45.9093 24.1797 46.4666 24.5599 46.9302 25.0703C47.3989 25.5755 47.7349 26.2161 47.938 26.9922L45.8364 27.4922C45.6698 26.7161 45.3468 26.1484 44.8677 25.7891C44.3885 25.4297 43.8078 25.25 43.1255 25.25C42.4328 25.25 41.8416 25.4245 41.3521 25.7734C40.8625 26.1172 40.4875 26.6042 40.2271 27.2344C39.9718 27.8646 39.8442 28.6094 39.8442 29.4688C39.8442 30.2188 39.9562 30.901 40.1802 31.5156C40.4041 32.125 40.7687 32.6094 41.2739 32.9688C41.7791 33.3229 42.4536 33.5 43.2974 33.5C43.7713 33.5 44.2531 33.4271 44.7427 33.2812C45.2323 33.1354 45.6541 32.8594 46.0083 32.4531V30.1406L46.7114 30.6719H42.563V29.0078H47.9302V33.25C47.4875 33.8021 46.9927 34.2188 46.4458 34.5C45.8989 34.7812 45.3521 34.9661 44.8052 35.0547C44.2635 35.1484 43.7791 35.1953 43.3521 35.1953ZM53.7349 35.1953C52.9067 35.1953 52.175 35.0104 51.5396 34.6406C50.9093 34.2656 50.4172 33.7474 50.063 33.0859C49.714 32.4193 49.5396 31.651 49.5396 30.7812C49.5396 29.9115 49.714 29.1458 50.063 28.4844C50.4172 27.8177 50.9093 27.2995 51.5396 26.9297C52.175 26.5547 52.9067 26.3672 53.7349 26.3672C54.563 26.3672 55.2922 26.5547 55.9224 26.9297C56.5526 27.2995 57.0448 27.8177 57.3989 28.4844C57.7531 29.1458 57.9302 29.9115 57.9302 30.7812C57.9302 31.651 57.7531 32.4193 57.3989 33.0859C57.0448 33.7474 56.55 34.2656 55.9146 34.6406C55.2843 35.0104 54.5578 35.1953 53.7349 35.1953ZM53.7349 33.7266C54.3963 33.7266 54.9198 33.4635 55.3052 32.9375C55.6906 32.4062 55.8833 31.6875 55.8833 30.7812C55.8833 29.8698 55.6906 29.151 55.3052 28.625C54.9198 28.099 54.3963 27.8359 53.7349 27.8359C53.0682 27.8359 52.5422 28.099 52.1567 28.625C51.7765 29.151 51.5864 29.8698 51.5864 30.7812C51.5864 31.6875 51.7765 32.4062 52.1567 32.9375C52.5422 33.4635 53.0682 33.7266 53.7349 33.7266ZM63.6411 35.1953C62.813 35.1953 62.0812 35.0104 61.4458 34.6406C60.8156 34.2656 60.3234 33.7474 59.9692 33.0859C59.6203 32.4193 59.4458 31.651 59.4458 30.7812C59.4458 29.9115 59.6203 29.1458 59.9692 28.4844C60.3234 27.8177 60.8156 27.2995 61.4458 26.9297C62.0812 26.5547 62.813 26.3672 63.6411 26.3672C64.4692 26.3672 65.1984 26.5547 65.8286 26.9297C66.4588 27.2995 66.951 27.8177 67.3052 28.4844C67.6593 29.1458 67.8364 29.9115 67.8364 30.7812C67.8364 31.651 67.6593 32.4193 67.3052 33.0859C66.951 33.7474 66.4562 34.2656 65.8208 34.6406C65.1906 35.0104 64.464 35.1953 63.6411 35.1953ZM63.6411 33.7266C64.3026 33.7266 64.826 33.4635 65.2114 32.9375C65.5968 32.4062 65.7896 31.6875 65.7896 30.7812C65.7896 29.8698 65.5968 29.151 65.2114 28.625C64.826 28.099 64.3026 27.8359 63.6411 27.8359C62.9744 27.8359 62.4484 28.099 62.063 28.625C61.6828 29.151 61.4927 29.8698 61.4927 30.7812C61.4927 31.6875 61.6828 32.4062 62.063 32.9375C62.4484 33.4635 62.9744 33.7266 63.6411 33.7266ZM72.8364 38.2422C71.5135 38.2422 70.5343 38.0625 69.8989 37.7031C69.2687 37.349 68.9536 36.7995 68.9536 36.0547C68.9536 35.612 69.0656 35.2396 69.2896 34.9375C69.5187 34.6354 69.8599 34.4089 70.313 34.2578C70.1203 34.1276 69.964 33.9609 69.8442 33.7578C69.7297 33.5547 69.6724 33.3333 69.6724 33.0938C69.6724 32.7865 69.7687 32.5156 69.9614 32.2812C70.1541 32.0417 70.4276 31.8698 70.7817 31.7656C70.3703 31.5156 70.0474 31.1849 69.813 30.7734C69.5838 30.3568 69.4692 29.8776 69.4692 29.3359C69.4692 28.737 69.6125 28.2161 69.8989 27.7734C70.1906 27.3255 70.5968 26.9792 71.1177 26.7344C71.6437 26.4896 72.2609 26.3672 72.9692 26.3672C73.6776 26.3672 74.2948 26.4896 74.8208 26.7344C75.3468 26.9792 75.7557 27.3255 76.0474 27.7734C76.339 28.2161 76.4849 28.7422 76.4849 29.3516C76.4849 29.9453 76.339 30.4635 76.0474 30.9062C75.7609 31.349 75.3521 31.6927 74.8208 31.9375C74.2896 32.1823 73.6672 32.3047 72.9536 32.3047H72.3208C71.7531 32.3047 71.4692 32.4635 71.4692 32.7812C71.4692 33.0885 71.7505 33.2422 72.313 33.2422H74.0161C74.6255 33.2422 75.1333 33.3151 75.5396 33.4609C75.9458 33.6068 76.2661 33.7995 76.5005 34.0391C76.7401 34.2786 76.9093 34.5469 77.0083 34.8438C77.1125 35.1406 77.1646 35.4401 77.1646 35.7422C77.1646 36.5911 76.8416 37.2188 76.1958 37.625C75.55 38.0365 74.5526 38.2422 73.2036 38.2422H72.8364ZM72.8677 36.9297H73.2271C74.5396 36.9297 75.1958 36.5365 75.1958 35.75C75.1958 35.4375 75.0786 35.1797 74.8442 34.9766C74.6151 34.7682 74.2036 34.6641 73.6099 34.6641H72.3755C71.9744 34.6641 71.6255 34.7526 71.3286 34.9297C71.0369 35.1016 70.8911 35.3906 70.8911 35.7969C70.8911 36.1771 71.0526 36.4609 71.3755 36.6484C71.6984 36.8359 72.1958 36.9297 72.8677 36.9297ZM72.9692 31.0547C73.5057 31.0547 73.9172 30.9062 74.2036 30.6094C74.4901 30.3125 74.6333 29.8932 74.6333 29.3516C74.6333 28.8099 74.4901 28.388 74.2036 28.0859C73.9172 27.7786 73.5057 27.625 72.9692 27.625C72.438 27.625 72.0291 27.776 71.7427 28.0781C71.4562 28.3802 71.313 28.8047 71.313 29.3516C71.313 29.8932 71.4562 30.3125 71.7427 30.6094C72.0291 30.9062 72.438 31.0547 72.9692 31.0547ZM74.2739 27.4531V26.6016C74.2739 26.1224 74.425 25.7474 74.7271 25.4766C75.0291 25.2005 75.438 25.0625 75.9536 25.0625H76.8442V26.5312H75.9458C75.7843 26.5312 75.6776 26.5599 75.6255 26.6172C75.5786 26.6745 75.5552 26.7917 75.5552 26.9688V27.4531H74.2739ZM80.3677 35C79.8521 35 79.4432 34.8646 79.1411 34.5938C78.839 34.3177 78.688 33.9401 78.688 33.4609V23.2812H80.6255V33.1016C80.6255 33.2734 80.6489 33.388 80.6958 33.4453C80.7479 33.5026 80.8547 33.5312 81.0161 33.5312H81.7271V35H80.3677ZM86.9146 35.1953C86.0968 35.1953 85.3729 35.0156 84.7427 34.6562C84.1125 34.2969 83.6177 33.7865 83.2583 33.125C82.8989 32.4635 82.7192 31.6823 82.7192 30.7812C82.7192 29.8802 82.8963 29.099 83.2505 28.4375C83.6047 27.776 84.0942 27.2656 84.7192 26.9062C85.3442 26.5469 86.0656 26.3672 86.8833 26.3672C87.3416 26.3672 87.8026 26.4375 88.2661 26.5781C88.7349 26.7188 89.1619 26.9688 89.5474 27.3281C89.938 27.6823 90.2531 28.1745 90.4927 28.8047C90.7323 29.4297 90.8521 30.224 90.8521 31.1875H83.9614V29.9609H89.1333L88.8364 30.4062C88.8052 29.776 88.6958 29.2708 88.5083 28.8906C88.326 28.5052 88.089 28.2266 87.7974 28.0547C87.5109 27.8776 87.1906 27.7891 86.8364 27.7891C86.3885 27.7891 86.0109 27.9115 85.7036 28.1562C85.3963 28.3958 85.1619 28.7422 85.0005 29.1953C84.8442 29.6432 84.7661 30.1745 84.7661 30.7891C84.7661 31.7057 84.9458 32.4245 85.3052 32.9453C85.6646 33.4609 86.1958 33.7188 86.8989 33.7188C87.3781 33.7188 87.7869 33.5964 88.1255 33.3516C88.464 33.1068 88.7166 32.7422 88.8833 32.2578L90.6802 32.7578C90.4771 33.3047 90.188 33.7578 89.813 34.1172C89.438 34.4766 89.0005 34.7474 88.5005 34.9297C88.0005 35.1068 87.4718 35.1953 86.9146 35.1953ZM96.2896 35V23.75H101.047C102.375 23.75 103.37 24.026 104.032 24.5781C104.698 25.1302 105.032 25.9427 105.032 27.0156C105.032 28.0729 104.685 28.8828 103.993 29.4453C103.305 30.0026 102.261 30.2812 100.86 30.2812H98.313V35H96.2896ZM98.313 28.6875H100.954C101.62 28.6875 102.128 28.5417 102.477 28.25C102.826 27.9531 103 27.5469 103 27.0312C103 26.5573 102.839 26.1589 102.516 25.8359C102.193 25.5078 101.665 25.3438 100.93 25.3438H98.313V28.6875ZM108.352 35C107.836 35 107.428 34.8646 107.125 34.5938C106.823 34.3177 106.672 33.9401 106.672 33.4609V23.2812H108.61V33.1016C108.61 33.2734 108.633 33.388 108.68 33.4453C108.732 33.5026 108.839 33.5312 109 33.5312H109.711V35H108.352ZM113.594 35.1953C113.047 35.1953 112.555 35.0964 112.118 34.8984C111.68 34.7005 111.334 34.4141 111.079 34.0391C110.823 33.6589 110.696 33.2057 110.696 32.6797C110.696 32.112 110.86 31.6172 111.188 31.1953C111.521 30.7682 112.011 30.4375 112.657 30.2031C113.308 29.9688 114.112 29.8516 115.071 29.8516H116.336L116.196 30.0391V29.5625C116.196 28.9583 116.081 28.5026 115.852 28.1953C115.623 27.888 115.243 27.7344 114.711 27.7344C114.206 27.7344 113.818 27.8672 113.547 28.1328C113.277 28.3984 113.12 28.7656 113.079 29.2344L111.055 28.8516C111.123 28.388 111.31 27.9688 111.618 27.5938C111.93 27.2188 112.355 26.9193 112.891 26.6953C113.428 26.4714 114.073 26.3594 114.829 26.3594C115.547 26.3594 116.149 26.4818 116.633 26.7266C117.118 26.9714 117.48 27.3516 117.719 27.8672C117.964 28.3776 118.086 29.0391 118.086 29.8516V33.1016C118.086 33.2734 118.11 33.388 118.157 33.4453C118.209 33.5026 118.316 33.5312 118.477 33.5312H118.899V35H117.891C117.381 35 116.982 34.8646 116.696 34.5938C116.409 34.3177 116.266 33.9401 116.266 33.4609V32.9844L116.594 33.0781C116.521 33.3021 116.415 33.5365 116.274 33.7812C116.133 34.026 115.946 34.2552 115.711 34.4688C115.477 34.6823 115.185 34.8568 114.836 34.9922C114.493 35.1276 114.079 35.1953 113.594 35.1953ZM114.125 33.7969C114.516 33.7969 114.868 33.7057 115.18 33.5234C115.498 33.3359 115.748 33.0521 115.93 32.6719C116.118 32.2865 116.211 31.8021 116.211 31.2188V31.0781H115.102C114.493 31.0781 114.016 31.1589 113.672 31.3203C113.329 31.4766 113.086 31.6719 112.946 31.9062C112.805 32.1354 112.735 32.3646 112.735 32.5938C112.735 32.7917 112.779 32.9844 112.868 33.1719C112.961 33.3542 113.11 33.5052 113.313 33.625C113.516 33.7396 113.787 33.7969 114.125 33.7969ZM120.563 38.0469V36.5781H121.93C122.034 36.5781 122.112 36.5521 122.165 36.5C122.222 36.4479 122.274 36.3594 122.321 36.2344L122.821 34.8359L122.688 35.5859L119.118 26.5625H121.29L123.665 33.75L123.407 33.7031L125.774 26.5625H127.93L123.969 36.8281C123.803 37.2552 123.558 37.5651 123.235 37.7578C122.912 37.9505 122.545 38.0469 122.133 38.0469H120.563Z" fill="white"/>
<defs>
<linearGradient id="paint0_linear_2856_1598" x1="21.8308" y1="10.2092" x2="5.04836" y2="26.9916" gradientUnits="userSpaceOnUse">
<stop stop-color="#00A0FF"/>
<stop offset="0.00657" stop-color="#00A1FF"/>
<stop offset="0.2601" stop-color="#00BEFF"/>
<stop offset="0.5122" stop-color="#00D2FF"/>
<stop offset="0.7604" stop-color="#00DFFF"/>
<stop offset="1" stop-color="#00E3FF"/>
</linearGradient>
<linearGradient id="paint1_linear_2856_1598" x1="33.8652" y1="21.5017" x2="9.66828" y2="21.5017" gradientUnits="userSpaceOnUse">
<stop stop-color="#FFE000"/>
<stop offset="0.4087" stop-color="#FFBD00"/>
<stop offset="0.7754" stop-color="#FFA500"/>
<stop offset="1" stop-color="#FF9C00"/>
</linearGradient>
<linearGradient id="paint2_linear_2856_1598" x1="24.8579" y1="23.7951" x2="2.09958" y2="46.5534" gradientUnits="userSpaceOnUse">
<stop stop-color="#FF3A44"/>
<stop offset="1" stop-color="#C31162"/>
</linearGradient>
<linearGradient id="paint3_linear_2856_1598" x1="7.32824" y1="1.67575" x2="17.4908" y2="11.8383" gradientUnits="userSpaceOnUse">
<stop stop-color="#32A071"/>
<stop offset="0.0685" stop-color="#2DA771"/>
<stop offset="0.4762" stop-color="#15CF74"/>
<stop offset="0.8009" stop-color="#06E775"/>
<stop offset="1" stop-color="#00F076"/>
</linearGradient>
</defs>
</svg>
