<svg width="48" height="48" viewBox="0 0 48 48" fill="none" xmlns="http://www.w3.org/2000/svg">
<path fill-rule="evenodd" clip-rule="evenodd" d="M0.0333351 23.6282C-0.143273 24.7512 0.426913 27.9615 0.687824 29.0757C1.07527 30.7299 1.60237 32.2022 2.22859 33.6389C3.93984 37.5639 6.08877 39.8654 8.71985 42.3201C9.21459 42.7817 9.85886 43.2289 10.4226 43.6386C11.5156 44.4326 12.8569 45.2374 14.2301 45.8572C23.4722 50.0297 33.8493 47.9799 40.8626 40.8241C42.7828 38.865 44.3239 36.7102 45.7855 33.6001C46.411 32.2688 46.9626 30.5883 47.3223 29.0334C47.5732 27.9497 48.1456 24.7179 47.9656 23.627L41.7742 23.6292C41.6676 24.2256 41.6761 25.0844 41.5888 25.7354C41.3316 27.6482 40.8398 29.2409 40.0926 30.9585C39.1498 33.1253 37.7603 34.9572 36.4562 36.2672C31.2263 41.521 23.5199 43.0886 16.7483 39.9512C14.5604 38.9375 12.93 37.6611 11.5442 36.2637C10.2306 34.9394 8.8767 33.1283 7.90748 30.9548C7.43351 29.8921 7.04896 28.8233 6.76216 27.6089C6.61195 26.9722 6.49053 26.3423 6.40333 25.6767C6.32073 25.046 6.32993 24.1964 6.22451 23.627L0.0333351 23.6282Z" fill="#16A34A"/>
<path fill-rule="evenodd" clip-rule="evenodd" d="M21.4097 15.8823L16.5773 13.3115C15.8007 12.9675 15.534 12.7824 14.5251 12.8631C13.041 12.9816 10.1082 13.72 8.95501 14.658C8.74451 14.8294 8.51732 15.2335 8.79083 15.544L10.2863 16.5166C10.5319 16.6832 10.7701 16.8577 11.0302 17.033L21.5884 23.597L21.4104 27.8697L26.8674 27.8838L26.8682 11.9634C26.9091 11.7743 30.5178 9.82873 30.7429 9.70138C33.2667 8.2735 36.1301 6.73325 38.5947 5.28177C39.8952 4.51578 41.2168 3.8456 42.5263 3.0775C44.679 1.81448 38.7172 0.321795 37.0768 0.18688C36.0441 0.101985 35.4808 0.413198 34.7061 0.812484C31.8981 2.25921 30.4026 3.15835 27.8448 4.68821C27.5854 4.84338 27.1436 5.02639 26.8679 5.13101L26.8672 0.00194362L21.4249 0L21.4097 15.8823Z" fill="#16A34A"/>
<path fill-rule="evenodd" clip-rule="evenodd" d="M20.5693 31.5206C19.5417 31.0508 18.7421 30.4107 18.114 29.7494C17.4818 29.084 16.8593 28.2641 16.4177 27.1934C15.6912 25.4314 15.8981 25.2098 15.6893 23.6271L9.69368 23.6493C9.5525 25.5133 10.2729 28.2699 10.9257 29.7369C12.0187 32.1939 13.7645 34.4318 15.8268 35.8649C16.5571 36.3724 17.2335 36.7747 18.1079 37.2014C21.6819 38.9458 26.3555 38.9352 29.9263 37.1852C31.5729 36.3782 32.9297 35.434 34.1476 34.1602C35.9424 32.2832 37.3505 29.7989 37.9631 26.969C38.1106 26.2877 38.4281 24.3028 38.2826 23.627L32.3088 23.6375C32.2193 24.3491 32.2476 24.8713 32.0909 25.5999C31.7321 27.2674 30.9519 28.6294 29.8856 29.7524C27.5945 32.1657 23.9433 33.0626 20.5693 31.5206Z" fill="#16A34A"/>
<path fill-rule="evenodd" clip-rule="evenodd" d="M27.7852 19.237C29.3491 19.6683 30.5559 20.1081 32.3819 20.0048C34.6167 19.8781 36.5221 18.7881 37.8685 17.2938C39.0721 15.9584 40.3302 13.924 41.1899 12.354C40.6629 11.8276 37.8014 11.2099 36.8215 11.1375C33.6633 10.9041 30.8304 12.238 29.1767 14.8547C28.5124 15.9059 27.8083 17.6552 27.7852 19.237Z" fill="#16A34A"/>
</svg>
