<svg width="80" height="80" viewBox="0 0 80 80" fill="none" xmlns="http://www.w3.org/2000/svg">
<path d="M63.5936 16.6594C60.4278 14.1355 56.8774 12.1361 53.0779 10.7375L55.1561 7.125C55.3634 6.76578 55.6394 6.45092 55.9684 6.19839C56.2974 5.94587 56.673 5.76063 57.0736 5.65326C57.4742 5.54589 57.892 5.51849 58.3032 5.57262C58.7144 5.62675 59.1109 5.76136 59.4701 5.96875L64.4529 8.84531C64.8122 9.05262 65.127 9.32867 65.3795 9.65768C65.6321 9.98669 65.8173 10.3622 65.9247 10.7628C66.032 11.1634 66.0594 11.5813 66.0053 11.9925C65.9512 12.4037 65.8166 12.8002 65.6092 13.1594L63.5936 16.6594ZM73.6889 46.3156C73.6842 64.8891 58.5732 80 39.9998 80C21.4264 80 6.31543 64.8891 6.31543 46.3156C6.31543 27.7422 21.4264 12.6312 39.9998 12.6312C58.5732 12.6312 73.6842 27.7422 73.6842 46.3156H73.6889ZM46.3201 46.3156C46.3199 45.0095 45.9149 43.7356 45.1608 42.6692C44.4066 41.6028 43.3405 40.7964 42.1092 40.3609V27.3688C42.1092 26.8103 41.8874 26.2748 41.4925 25.88C41.0976 25.4851 40.5621 25.2633 40.0037 25.2633C39.4453 25.2633 38.9098 25.4851 38.5149 25.88C38.1201 26.2748 37.8982 26.8103 37.8982 27.3688V40.3609C36.8066 40.7468 35.8419 41.4254 35.1099 42.3224C34.3778 43.2195 33.9064 44.3006 33.7473 45.4474C33.5881 46.5943 33.7473 47.7629 34.2074 48.8254C34.6676 49.8879 35.411 50.8035 36.3563 51.4721C37.3017 52.1406 38.4127 52.5364 39.5678 52.6162C40.7229 52.6959 41.8778 52.4566 42.9061 51.9244C43.9344 51.3921 44.7965 50.5874 45.3984 49.5983C46.0002 48.6091 46.3185 47.4735 46.3186 46.3156H46.3201ZM39.9998 44.2109C39.5835 44.2109 39.1766 44.3344 38.8305 44.5656C38.4844 44.7969 38.2146 45.1256 38.0553 45.5102C37.896 45.8948 37.8543 46.318 37.9356 46.7262C38.0168 47.1345 38.2172 47.5095 38.5116 47.8039C38.8059 48.0982 39.1809 48.2987 39.5892 48.3799C39.9975 48.4611 40.4207 48.4194 40.8052 48.2601C41.1898 48.1008 41.5185 47.831 41.7498 47.4849C41.9811 47.1388 42.1045 46.7319 42.1045 46.3156C42.1037 45.7577 41.8817 45.2228 41.4871 44.8283C41.0926 44.4338 40.5578 44.2118 39.9998 44.2109ZM16.4061 16.6594C19.5718 14.1355 23.1222 12.1361 26.9217 10.7375L24.8436 7.125C24.6362 6.76578 24.3602 6.45092 24.0312 6.19839C23.7022 5.94587 23.3266 5.76063 22.926 5.65326C22.5254 5.54589 22.1076 5.51849 21.6964 5.57262C21.2852 5.62675 20.8887 5.76136 20.5295 5.96875L15.5467 8.84531C15.1875 9.05262 14.8726 9.32867 14.6201 9.65768C14.3675 9.98669 14.1823 10.3622 14.0749 10.7628C13.9676 11.1634 13.9402 11.5813 13.9943 11.9925C14.0484 12.4037 14.183 12.8002 14.3904 13.1594L16.4061 16.6594ZM48.4154 9.3625V4.20625C48.4121 3.09197 47.9681 2.02424 47.1804 1.23617C46.3926 0.448107 45.325 0.00370942 44.2107 0L35.7889 0C34.6727 0.00206509 33.6028 0.446379 32.8136 1.23564C32.0243 2.02489 31.58 3.09476 31.5779 4.21094V9.36719C37.122 8.11312 42.8761 8.11312 48.4201 9.36719L48.4154 9.3625Z" fill="#06402B"/>
</svg>
