<svg width="258" height="257" viewBox="0 0 258 257" fill="none" xmlns="http://www.w3.org/2000/svg">
<path d="M152.365 -19.1241C165.89 -7.74225 176.758 6.46491 184.203 22.498C191.647 38.5311 195.489 56.0008 195.457 73.678C195.424 91.3553 191.519 108.811 184.016 124.817C176.513 140.822 165.594 154.99 152.027 166.322C138.46 177.655 122.575 185.877 105.489 190.411C88.4025 194.944 70.5306 195.679 53.1301 192.563C35.7296 189.447 19.223 182.557 4.77165 172.376C-9.67975 162.196 -21.725 148.973 -30.5168 133.637L-14.1976 124.281C-6.77262 137.233 3.40008 148.401 15.6049 156.999C27.8097 165.596 41.7501 171.416 56.4456 174.047C71.141 176.678 86.2345 176.058 100.664 172.229C115.094 168.4 128.51 161.456 139.968 151.886C151.426 142.315 160.647 130.35 166.984 116.832C173.321 103.315 176.619 88.5729 176.646 73.6437C176.673 58.7146 173.429 43.9608 167.142 30.4201C160.854 16.8795 151.676 4.881 140.253 -4.73142L152.365 -19.1241Z" fill="#16A34A" fill-opacity="0.1"/>
<circle cx="87.7916" cy="84.4504" r="60.5" transform="rotate(11.5838 87.7916 84.4504)" fill="#16A34A" fill-opacity="0.1"/>
</svg>
