<svg width="233" height="234" viewBox="0 0 233 234" fill="none" xmlns="http://www.w3.org/2000/svg">
<path d="M267.857 134.192C257.8 148.73 244.679 160.887 229.419 169.808C214.158 178.73 197.128 184.2 179.526 185.833C161.924 187.465 144.179 185.222 127.537 179.259C110.896 173.297 95.7632 163.76 83.2034 151.321C70.6436 138.882 60.9619 123.841 54.8393 107.258C48.7168 90.6751 46.3021 72.9519 47.7652 55.3353C49.2282 37.7187 54.5335 20.6365 63.3077 5.29058C72.082 -10.0554 84.1121 -23.2925 98.5518 -33.4895L109.403 -18.124C97.2077 -9.51219 87.0477 1.66706 79.6375 14.6274C72.2273 27.5876 67.7468 42.0142 66.5112 56.8921C65.2756 71.7701 67.3149 86.7381 72.4857 100.743C77.6564 114.748 85.833 127.45 96.4402 137.956C107.048 148.462 119.828 156.515 133.882 161.551C147.936 166.586 162.923 168.481 177.789 167.102C192.654 165.723 207.037 161.104 219.925 153.569C232.813 146.035 243.894 135.767 252.388 123.49L267.857 134.192Z" fill="#4CAF50" fill-opacity="0.1"/>
<circle cx="158.662" cy="79.6612" r="60.5" transform="rotate(96.1797 158.662 79.6612)" fill="#4CAF50" fill-opacity="0.1"/>
</svg>
