<svg width="80" height="80" viewBox="0 0 80 80" fill="none" xmlns="http://www.w3.org/2000/svg">
<path d="M78.4891 40.7625L72.6062 30.1719C71.5666 28.3017 70.046 26.7434 68.2018 25.6582C66.3576 24.5731 64.2569 24.0006 62.1172 24H52V22C51.9967 18.8184 50.7313 15.7681 48.4816 13.5184C46.2319 11.2687 43.1816 10.0033 40 10H12C8.81842 10.0033 5.76809 11.2687 3.51837 13.5184C1.26865 15.7681 0.00330898 18.8184 0 22L0 50C0.00494259 52.864 1.0334 55.632 2.89978 57.8043C4.76616 59.9767 7.34755 61.4105 10.1781 61.8469C10.6088 64.1223 11.8158 66.1778 13.5933 67.6624C15.3707 69.1469 17.6083 69.9686 19.9241 69.987C22.2399 70.0055 24.4903 69.2196 26.2911 67.7635C28.092 66.3074 29.3316 64.2714 29.7984 62.0031H54.2016C54.7008 64.3874 56.0532 66.5075 58.0048 67.9653C59.9565 69.4232 62.3731 70.1185 64.8011 69.9207C67.2291 69.7229 69.5014 68.6457 71.1914 66.8913C72.8814 65.1368 73.8729 62.8259 73.9797 60.3922C75.8079 59.3418 77.327 57.8281 78.3839 56.0037C79.4408 54.1792 79.9982 52.1085 80 50V46.5906C79.9981 44.5513 79.4782 42.5459 78.4891 40.7625ZM20 66C18.8133 66 17.6533 65.6481 16.6666 64.9888C15.6799 64.3295 14.9108 63.3925 14.4567 62.2961C14.0026 61.1997 13.8838 59.9933 14.1153 58.8295C14.3468 57.6656 14.9182 56.5965 15.7574 55.7574C16.5965 54.9182 17.6656 54.3468 18.8295 54.1153C19.9933 53.8838 21.1997 54.0026 22.2961 54.4567C23.3925 54.9108 24.3295 55.6799 24.9888 56.6666C25.6481 57.6533 26 58.8133 26 60C25.9983 61.5908 25.3657 63.1159 24.2408 64.2408C23.116 65.3657 21.5908 65.9983 20 66ZM64 66C62.8133 66 61.6533 65.6481 60.6666 64.9888C59.6799 64.3295 58.9108 63.3925 58.4567 62.2961C58.0026 61.1997 57.8838 59.9933 58.1153 58.8295C58.3468 57.6656 58.9182 56.5965 59.7574 55.7574C60.5965 54.9182 61.6656 54.3468 62.8295 54.1153C63.9933 53.8838 65.1997 54.0026 66.2961 54.4567C67.3925 54.9108 68.3295 55.6799 68.9888 56.6666C69.6481 57.6533 70 58.8133 70 60C69.9983 61.5908 69.3657 63.1159 68.2408 64.2408C67.116 65.3657 65.5908 65.9983 64 66ZM70.9984 42H58.5625C58.2973 42 58.0429 41.8946 57.8554 41.7071C57.6679 41.5196 57.5625 41.2652 57.5625 41V31C57.5625 30.7348 57.6679 30.4804 57.8554 30.2929C58.0429 30.1054 58.2973 30 58.5625 30H62.5C63.5701 29.9999 64.6207 30.286 65.5429 30.8286C66.4652 31.3712 67.2256 32.1506 67.7453 33.0859L71.875 40.5141C71.9597 40.6665 72.0032 40.8384 72.0009 41.0128C71.9987 41.1871 71.9509 41.3579 71.8623 41.5081C71.7737 41.6583 71.6474 41.7827 71.4958 41.869C71.3443 41.9553 71.1728 42.0004 70.9984 42Z" fill="#715612"/>
</svg>
