<svg width="80" height="60" viewBox="0 0 80 60" fill="none" xmlns="http://www.w3.org/2000/svg">
<path d="M78.4891 30.7625L72.6062 20.1719C71.5666 18.3017 70.046 16.7434 68.2018 15.6582C66.3576 14.5731 64.2569 14.0006 62.1172 14H52V12C51.9967 8.81842 50.7313 5.76809 48.4816 3.51837C46.2319 1.26865 43.1816 0.00330898 40 0H12C8.81842 0.00330898 5.76809 1.26865 3.51837 3.51837C1.26865 5.76809 0.00330898 8.81842 0 12L0 40C0.00494259 42.864 1.0334 45.632 2.89978 47.8043C4.76616 49.9767 7.34755 51.4105 10.1781 51.8469C10.6088 54.1223 11.8158 56.1778 13.5933 57.6624C15.3707 59.1469 17.6083 59.9686 19.9241 59.987C22.2399 60.0055 24.4903 59.2196 26.2911 57.7635C28.092 56.3074 29.3316 54.2714 29.7984 52.0031H54.2016C54.7008 54.3874 56.0532 56.5075 58.0048 57.9653C59.9565 59.4232 62.3731 60.1185 64.8011 59.9207C67.2291 59.7229 69.5014 58.6457 71.1914 56.8913C72.8814 55.1368 73.8729 52.8259 73.9797 50.3922C75.8079 49.3418 77.327 47.8281 78.3839 46.0037C79.4408 44.1792 79.9982 42.1085 80 40V36.5906C79.9981 34.5513 79.4782 32.5459 78.4891 30.7625ZM20 56C18.8133 56 17.6533 55.6481 16.6666 54.9888C15.6799 54.3295 14.9108 53.3925 14.4567 52.2961C14.0026 51.1997 13.8838 49.9933 14.1153 48.8295C14.3468 47.6656 14.9182 46.5965 15.7574 45.7574C16.5965 44.9182 17.6656 44.3468 18.8295 44.1153C19.9933 43.8838 21.1997 44.0026 22.2961 44.4567C23.3925 44.9108 24.3295 45.6799 24.9888 46.6666C25.6481 47.6533 26 48.8133 26 50C25.9983 51.5908 25.3657 53.1159 24.2408 54.2408C23.116 55.3657 21.5908 55.9983 20 56ZM64 56C62.8133 56 61.6533 55.6481 60.6666 54.9888C59.6799 54.3295 58.9108 53.3925 58.4567 52.2961C58.0026 51.1997 57.8838 49.9933 58.1153 48.8295C58.3468 47.6656 58.9182 46.5965 59.7574 45.7574C60.5965 44.9182 61.6656 44.3468 62.8295 44.1153C63.9933 43.8838 65.1997 44.0026 66.2961 44.4567C67.3925 44.9108 68.3295 45.6799 68.9888 46.6666C69.6481 47.6533 70 48.8133 70 50C69.9983 51.5908 69.3657 53.1159 68.2408 54.2408C67.116 55.3657 65.5908 55.9983 64 56ZM70.9984 32H58.5625C58.2973 32 58.0429 31.8946 57.8554 31.7071C57.6679 31.5196 57.5625 31.2652 57.5625 31V21C57.5625 20.7348 57.6679 20.4804 57.8554 20.2929C58.0429 20.1054 58.2973 20 58.5625 20H62.5C63.5701 19.9999 64.6207 20.286 65.5429 20.8286C66.4652 21.3712 67.2256 22.1506 67.7453 23.0859L71.875 30.5141C71.9597 30.6665 72.0032 30.8384 72.0009 31.0128C71.9987 31.1871 71.9509 31.3579 71.8623 31.5081C71.7737 31.6583 71.6474 31.7827 71.4958 31.869C71.3443 31.9553 71.1728 32.0004 70.9984 32Z" fill="#715612"/>
</svg>
